<svg id="Capa_1" data-name="Capa 1" xmlns="http://www.w3.org/2000/svg" viewBox="0 0 164.08 41.42"><defs><style>.cls-1{fill:#fff;}</style></defs><title>SAFI</title><path class="cls-1" d="M114.85,20.17c-1.12,0-1.27-.45-1.27-.84a1.59,1.59,0,0,1,.16-.59l6.47-14.23L114.84,5.6,108.74,19a2.91,2.91,0,0,0-.15.89A2.38,2.38,0,0,0,110.06,22a5.32,5.32,0,0,0,2.51.6h2.61l1.19-2.43Z"/><path class="cls-1" d="M106.17,9.37,102,18.53a1.16,1.16,0,0,1-.09.14,3.44,3.44,0,0,1-1.81,1.22,4.08,4.08,0,0,1-1.36.28H91.47c-1.11,0-1.26-.46-1.26-.87a1.32,1.32,0,0,1,.15-.59l4.25-9.37-4.87,0L85.38,19a2.57,2.57,0,0,0-.16.88A2.38,2.38,0,0,0,86.69,22a5.19,5.19,0,0,0,2.51.62h11.6a7,7,0,0,0,2.63-.42A5,5,0,0,0,106,20.44l.11-.19,5-10.91Z"/><path class="cls-1" d="M140.27,10a5.37,5.37,0,0,0-2.53-.6H122l-1.11,2.43h14.55a1.82,1.82,0,0,1,.94.23.67.67,0,0,1,.39.64,1.31,1.31,0,0,1-.14.56l-.24.56h-13c-2.28,0-3.79.79-4.49,2.34l-1.67,3.7a1.63,1.63,0,0,0-.12.68c0,1.39,1.11,2.09,3.3,2.09h12.72a6.77,6.77,0,0,0,2.41-.41,5.14,5.14,0,0,0,2.59-1.74c.05-.09.14-.23.22-.39L141.59,13a3,3,0,0,0,.15-.9A2.35,2.35,0,0,0,140.27,10m-5.76,8a5.14,5.14,0,0,1-.27.49,3.56,3.56,0,0,1-1.81,1.22,4.29,4.29,0,0,1-1.53.28h-7.45a1.24,1.24,0,0,1-.92-.24.48.48,0,0,1-.06-.4l1-2.1a1.4,1.4,0,0,1,.9-.88,5.31,5.31,0,0,1,1.4-.11h9.56Z"/><path class="cls-1" d="M60.73,9.92a5.42,5.42,0,0,0-2.48-.57H46.65A7,7,0,0,0,44,9.77a5,5,0,0,0-2.59,1.75,4.1,4.1,0,0,0-.27.48L38,19a2,2,0,0,0-.17.9A2.4,2.4,0,0,0,39.3,22a5.21,5.21,0,0,0,2.51.62H53.58A6.55,6.55,0,0,0,56,22.19a5.09,5.09,0,0,0,2.59-1.74c.08-.12.23-.42.34-.64L62,12.92A2.66,2.66,0,0,0,62.2,12a2.34,2.34,0,0,0-1.47-2.11M57,13.23l-2.31,5.05a4.14,4.14,0,0,1-.21.39,3.56,3.56,0,0,1-1.81,1.22,4.5,4.5,0,0,1-1.46.28H44.09c-1.12,0-1.27-.46-1.27-.87a1.25,1.25,0,0,1,.15-.58l2.22-4.87c.07-.15.22-.44.29-.55a3.59,3.59,0,0,1,1.82-1.22,4.68,4.68,0,0,1,1.84-.29H56c1.05,0,1.19.44,1.19.82a1.54,1.54,0,0,1-.16.63"/><path class="cls-1" d="M85.09,9.94a5.65,5.65,0,0,0-2.57-.57H70.8a6.8,6.8,0,0,0-2.52.42,5,5,0,0,0-2.58,1.75,8.74,8.74,0,0,0-.48.88h0l-7.43,16.3h4.87l2.8-6.12H77.77a6.68,6.68,0,0,0,5.11-1.9l3.56-7.77a2.7,2.7,0,0,0,.15-.87,2.34,2.34,0,0,0-1.5-2.12m-3.75,3.29-2.67,5.83a2.1,2.1,0,0,1-2,.87H66.79l2.74-6h0a5.48,5.48,0,0,1,.33-.63,3.6,3.6,0,0,1,1.81-1.22,4.57,4.57,0,0,1,1.65-.29h6.92c1.1,0,1.23.45,1.23.84a1.42,1.42,0,0,1-.13.61"/><path class="cls-1" d="M159.58,9.94A5.62,5.62,0,0,0,157,9.37h-7.89a6.72,6.72,0,0,0-2.52.42A5,5,0,0,0,144,11.54a7.56,7.56,0,0,0-.44.81L138.9,22.6h5l4-8.89a2.47,2.47,0,0,1,.23-.44A3.57,3.57,0,0,1,150,12a4.69,4.69,0,0,1,1.16-.26h3.62c1.16,0,1.31.46,1.31.87a1.37,1.37,0,0,1-.14.58l-.77,1.7H160l.9-2a2.51,2.51,0,0,0,.16-.87,2.34,2.34,0,0,0-1.5-2.12"/><path class="cls-1" d="M42.08,3.29q-1.26-1.66-5.49-1.66H27.41A6.69,6.69,0,0,0,25,2a4.46,4.46,0,0,0-2.32,1.44l0,0L13,22.39h7.79l4-7.7H29a16.23,16.23,0,0,0,7.93-1.77A11.49,11.49,0,0,0,41.76,8c1.06-2,1.16-3.6.32-4.71m-7.14,4.9a4.81,4.81,0,0,1-2.2,2.06,9.59,9.59,0,0,1-4.36.81H26l2.22-4.33h0a3.7,3.7,0,0,1,.24-.42,2.49,2.49,0,0,1,1.32-.83,3.77,3.77,0,0,1,1.37-.2h.57c1.82,0,2.91.28,3.28.85a1.92,1.92,0,0,1-.07,2.06"/><polygon class="cls-1" points="32.96 32.16 38.3 32.16 38.3 33.24 34.11 33.24 34.11 35.91 38.02 35.91 38.02 36.99 34.11 36.99 34.11 40.66 32.96 40.66 32.96 32.16"/><path class="cls-1" d="M39,36.63a4.44,4.44,0,1,1,4.44,4.47A4.33,4.33,0,0,1,39,36.63m7.65,0a3.21,3.21,0,1,0-6.42,0,3.21,3.21,0,1,0,6.42,0"/><polygon class="cls-1" points="49.15 32.16 50.66 32.16 55.35 39.15 55.38 39.15 55.38 32.16 56.53 32.16 56.53 40.66 55.06 40.66 50.33 33.67 50.3 33.67 50.3 40.66 49.15 40.66 49.15 32.16"/><path class="cls-1" d="M58.18,32.16h3a4.12,4.12,0,0,1,4.48,4.25c0,2.17-1.63,4.25-4.67,4.25H58.18Zm1.15,7.42h1.45c1.95,0,3.61-1.07,3.61-3.17a3.05,3.05,0,0,0-3.33-3.17H59.33Z"/><path class="cls-1" d="M66.4,36.63a4.44,4.44,0,1,1,4.43,4.47,4.32,4.32,0,0,1-4.43-4.47m7.64,0a3.21,3.21,0,1,0-6.42,0,3.21,3.21,0,1,0,6.42,0"/><path class="cls-1" d="M76.83,39.1a2.1,2.1,0,0,0,1.8.91,1.57,1.57,0,0,0,1.69-1.41c0-2-4.19-.75-4.19-4.07A2.58,2.58,0,0,1,79,32.16a2.93,2.93,0,0,1,2.45,1l-.93.85A1.81,1.81,0,0,0,79,33.24c-1.27,0-1.66.76-1.66,1.29,0,2.16,4.2.87,4.2,3.94a2.69,2.69,0,0,1-3,2.63,3.27,3.27,0,0,1-2.71-1.18Z"/><path class="cls-1" d="M85.71,32.16h3a4.1,4.1,0,0,1,4.47,4.25,4.29,4.29,0,0,1-4.66,4.25H85.71Zm1.15,7.42h1.45c2,0,3.61-1.07,3.61-3.17a3.05,3.05,0,0,0-3.33-3.17H86.86Z"/><polygon class="cls-1" points="94.45 32.16 99.94 32.16 99.94 33.24 95.61 33.24 95.61 35.77 99.64 35.77 99.64 36.85 95.61 36.85 95.61 39.58 100.16 39.58 100.16 40.66 94.45 40.66 94.45 32.16"/><rect class="cls-1" x="104.31" y="32.16" width="1.15" height="8.51"/><polygon class="cls-1" points="107.3 32.16 108.82 32.16 113.5 39.15 113.52 39.15 113.52 32.16 114.68 32.16 114.68 40.66 113.21 40.66 108.48 33.67 108.45 33.67 108.45 40.66 107.3 40.66 107.3 32.16"/><polygon class="cls-1" points="115.35 32.16 116.69 32.16 119.19 39.08 119.21 39.08 121.8 32.16 123.06 32.16 119.71 40.66 118.63 40.66 115.35 32.16"/><polygon class="cls-1" points="123.74 32.16 129.23 32.16 129.23 33.24 124.89 33.24 124.89 35.77 128.93 35.77 128.93 36.85 124.89 36.85 124.89 39.58 129.45 39.58 129.45 40.66 123.74 40.66 123.74 32.16"/><path class="cls-1" d="M130.73,32.16h3c2.18,0,2.73,1.31,2.73,2.38a2.28,2.28,0,0,1-2.09,2.24l2.42,3.88h-1.45l-2.16-3.75h-1.28v3.75h-1.16Zm1.16,3.75h1.51c.92,0,1.83-.22,1.83-1.37s-.91-1.37-1.83-1.37h-1.51Z"/><path class="cls-1" d="M138,39.1a2.09,2.09,0,0,0,1.8.91,1.57,1.57,0,0,0,1.69-1.41c0-2-4.19-.75-4.19-4.07a2.58,2.58,0,0,1,2.88-2.37,3,3,0,0,1,2.46,1l-.94.85a1.81,1.81,0,0,0-1.52-.74c-1.27,0-1.65.76-1.65,1.29,0,2.16,4.19.87,4.19,3.94a2.69,2.69,0,0,1-3,2.63A3.27,3.27,0,0,1,137,39.92Z"/><rect class="cls-1" x="144.06" y="32.16" width="1.15" height="8.51"/><path class="cls-1" d="M146.52,37A4.44,4.44,0,1,1,151,41.42,4.33,4.33,0,0,1,146.52,37m7.64,0a3.21,3.21,0,1,0-6.41,0,3.21,3.21,0,1,0,6.41,0m-2.75-6.47H153l-1.79,1.73h-1Z"/><polygon class="cls-1" points="156.7 32.16 158.21 32.16 162.9 39.15 162.92 39.15 162.92 32.16 164.08 32.16 164.08 40.66 162.61 40.66 157.88 33.67 157.85 33.67 157.85 40.66 156.7 40.66 156.7 32.16"/><path class="cls-1" d="M26.69,21c2.15,4.69,2.55,8.67.66,10.37-3.07,2.76-11-1.53-17.7-9.59S0,4.91,3.06,2.15c2.47-2.21,8,.12,13.61,5.27l0-1C10.49.88,4.29-1.53,1.47,1c-3.57,3.2-.41,13.06,7,22s16.4,13.63,20,10.42c2.33-2.09,1.78-7-1-12.7Z"/></svg>