<?xml version="1.0" encoding="utf-8"?>
<!-- Generator: Adobe Illustrator 27.5.0, SVG Export Plug-In . SVG Version: 6.00 Build 0)  -->
<svg version="1.1" id="Capa_1" xmlns="http://www.w3.org/2000/svg" xmlns:xlink="http://www.w3.org/1999/xlink" x="0px" y="0px"
	 viewBox="0 0 300 113" style="enable-background:new 0 0 300 113;" xml:space="preserve">
<style type="text/css">
	.st0{fill:#FFFFFF;}
</style>
<g>
	<g>
		<g>
			<path class="st0" d="M122.79,98.97l-2.27-3.47h1.04l1.64,2.66l1.69-2.66h0.99l-2.27,3.47v2.58h-0.81V98.97z"/>
			<path class="st0" d="M129.12,95.5h2.09c0.42,0,0.8,0.05,1.11,0.15c0.32,0.1,0.6,0.23,0.83,0.39c0.23,0.16,0.43,0.35,0.58,0.56
				c0.16,0.21,0.28,0.43,0.37,0.65c0.09,0.22,0.16,0.44,0.19,0.67c0.04,0.22,0.06,0.43,0.06,0.62c0,0.39-0.07,0.76-0.21,1.12
				c-0.14,0.36-0.35,0.68-0.63,0.97c-0.28,0.28-0.62,0.51-1.03,0.68c-0.41,0.17-0.88,0.26-1.42,0.26h-1.96V95.5z M129.93,100.78
				h1.03c0.34,0,0.67-0.05,0.98-0.14c0.31-0.09,0.58-0.24,0.81-0.42c0.23-0.19,0.42-0.42,0.55-0.71c0.14-0.28,0.2-0.61,0.2-0.99
				c0-0.19-0.03-0.42-0.09-0.68s-0.18-0.51-0.35-0.74c-0.17-0.23-0.41-0.43-0.72-0.59c-0.31-0.16-0.7-0.24-1.19-0.24h-1.22V100.78z"
				/>
			<path class="st0" d="M135.7,95.5h3.87v0.77h-3.06v1.8h2.85v0.77h-2.85v1.94h3.21v0.77h-4.03V95.5z"/>
			<path class="st0" d="M143.44,95.5h2.09c0.42,0,0.8,0.05,1.11,0.15c0.32,0.1,0.6,0.23,0.83,0.39c0.23,0.16,0.43,0.35,0.58,0.56
				c0.16,0.21,0.28,0.43,0.37,0.65c0.09,0.22,0.16,0.44,0.19,0.67c0.04,0.22,0.06,0.43,0.06,0.62c0,0.39-0.07,0.76-0.21,1.12
				c-0.14,0.36-0.35,0.68-0.63,0.97c-0.28,0.28-0.62,0.51-1.03,0.68c-0.41,0.17-0.88,0.26-1.42,0.26h-1.96V95.5z M144.25,100.78
				h1.03c0.34,0,0.67-0.05,0.98-0.14c0.31-0.09,0.58-0.24,0.81-0.42c0.23-0.19,0.42-0.42,0.55-0.71c0.14-0.28,0.2-0.61,0.2-0.99
				c0-0.19-0.03-0.42-0.09-0.68s-0.18-0.51-0.35-0.74c-0.17-0.23-0.41-0.43-0.72-0.59c-0.31-0.16-0.7-0.24-1.19-0.24h-1.22V100.78z"
				/>
			<path class="st0" d="M150.03,95.5h3.87v0.77h-3.06v1.8h2.85v0.77h-2.85v1.94h3.21v0.77h-4.03V95.5z"/>
			<path class="st0" d="M155.55,100.28c0.15,0.22,0.33,0.39,0.56,0.49c0.23,0.11,0.46,0.16,0.71,0.16c0.14,0,0.27-0.02,0.42-0.06
				c0.14-0.04,0.27-0.11,0.39-0.19c0.12-0.09,0.21-0.19,0.28-0.32s0.11-0.27,0.11-0.44c0-0.23-0.07-0.41-0.22-0.53
				c-0.15-0.12-0.33-0.23-0.55-0.31c-0.22-0.08-0.45-0.16-0.71-0.24c-0.26-0.08-0.49-0.18-0.71-0.32c-0.22-0.14-0.4-0.32-0.55-0.55
				c-0.15-0.23-0.22-0.54-0.22-0.94c0-0.18,0.04-0.36,0.11-0.56c0.08-0.2,0.2-0.38,0.36-0.55c0.16-0.17,0.37-0.3,0.63-0.41
				c0.26-0.11,0.57-0.17,0.93-0.17c0.33,0,0.64,0.05,0.94,0.14c0.3,0.09,0.56,0.28,0.79,0.56l-0.66,0.61
				c-0.1-0.16-0.25-0.29-0.43-0.38c-0.19-0.1-0.4-0.15-0.64-0.15c-0.23,0-0.41,0.03-0.56,0.09c-0.15,0.06-0.27,0.14-0.36,0.23
				c-0.09,0.09-0.15,0.19-0.19,0.3c-0.04,0.11-0.06,0.21-0.06,0.3c0,0.26,0.07,0.45,0.22,0.59c0.15,0.14,0.33,0.25,0.55,0.33
				c0.22,0.09,0.45,0.16,0.71,0.23c0.26,0.07,0.49,0.16,0.71,0.29c0.22,0.12,0.4,0.29,0.55,0.5c0.15,0.21,0.22,0.49,0.22,0.86
				c0,0.29-0.06,0.55-0.17,0.79c-0.11,0.23-0.26,0.43-0.44,0.59c-0.19,0.16-0.41,0.28-0.66,0.37c-0.25,0.09-0.53,0.13-0.81,0.13
				c-0.38,0-0.75-0.07-1.09-0.2c-0.34-0.14-0.62-0.35-0.82-0.63L155.55,100.28z"/>
			<path class="st0" d="M162.14,95.5h0.74l2.57,6.05h-0.95l-0.6-1.5h-2.86l-0.59,1.5h-0.95L162.14,95.5z M163.59,99.33l-1.12-2.78
				h-0.02l-1.14,2.78H163.59z"/>
			<path class="st0" d="M166.39,95.5h2.11c0.38,0,0.7,0.05,0.95,0.16c0.25,0.11,0.44,0.24,0.59,0.4c0.14,0.16,0.24,0.35,0.3,0.55
				c0.06,0.2,0.08,0.4,0.08,0.58c0,0.19-0.03,0.38-0.1,0.56c-0.07,0.18-0.16,0.34-0.29,0.49c-0.13,0.14-0.28,0.27-0.47,0.37
				c-0.18,0.1-0.39,0.16-0.61,0.18l1.7,2.76h-1.02l-1.53-2.67h-0.91v2.67h-0.81V95.5z M167.2,98.16h1.07c0.16,0,0.32-0.01,0.47-0.04
				c0.16-0.03,0.29-0.07,0.42-0.14s0.22-0.17,0.29-0.3c0.07-0.13,0.11-0.3,0.11-0.5c0-0.2-0.04-0.37-0.11-0.5s-0.17-0.23-0.29-0.3
				c-0.12-0.07-0.26-0.11-0.42-0.14c-0.16-0.03-0.31-0.04-0.47-0.04h-1.07V98.16z"/>
			<path class="st0" d="M171.74,95.5h2.11c0.38,0,0.7,0.05,0.95,0.16c0.25,0.11,0.44,0.24,0.59,0.4c0.14,0.16,0.24,0.35,0.3,0.55
				c0.06,0.2,0.08,0.4,0.08,0.58c0,0.19-0.03,0.38-0.1,0.56c-0.07,0.18-0.16,0.34-0.29,0.49c-0.13,0.14-0.28,0.27-0.47,0.37
				c-0.18,0.1-0.39,0.16-0.61,0.18l1.7,2.76h-1.02l-1.53-2.67h-0.91v2.67h-0.81V95.5z M172.55,98.16h1.07
				c0.16,0,0.32-0.01,0.47-0.04c0.16-0.03,0.29-0.07,0.42-0.14s0.22-0.17,0.29-0.3c0.07-0.13,0.11-0.3,0.11-0.5
				c0-0.2-0.04-0.37-0.11-0.5s-0.17-0.23-0.29-0.3c-0.12-0.07-0.26-0.11-0.42-0.14c-0.16-0.03-0.31-0.04-0.47-0.04h-1.07V98.16z"/>
			<path class="st0" d="M179.84,101.7c-0.46,0-0.88-0.08-1.26-0.24c-0.38-0.16-0.71-0.39-0.99-0.67c-0.27-0.28-0.49-0.62-0.64-1.01
				c-0.16-0.39-0.23-0.81-0.23-1.26s0.08-0.87,0.23-1.26c0.15-0.39,0.37-0.72,0.64-1.01c0.27-0.29,0.6-0.51,0.99-0.67
				c0.38-0.16,0.81-0.24,1.26-0.24c0.46,0,0.88,0.08,1.26,0.24c0.38,0.16,0.71,0.39,0.99,0.67c0.27,0.28,0.49,0.62,0.64,1.01
				c0.16,0.39,0.23,0.81,0.23,1.26s-0.08,0.87-0.23,1.26c-0.16,0.39-0.37,0.72-0.64,1.01c-0.27,0.29-0.6,0.51-0.99,0.67
				C180.72,101.62,180.3,101.7,179.84,101.7z M179.84,100.93c0.34,0,0.66-0.06,0.93-0.19c0.28-0.13,0.51-0.3,0.71-0.52
				c0.2-0.22,0.35-0.47,0.46-0.77c0.11-0.29,0.16-0.6,0.16-0.94c0-0.33-0.05-0.64-0.16-0.94c-0.11-0.29-0.26-0.55-0.46-0.77
				c-0.2-0.22-0.44-0.39-0.71-0.52c-0.28-0.13-0.59-0.19-0.93-0.19c-0.34,0-0.66,0.06-0.93,0.19c-0.28,0.13-0.51,0.3-0.71,0.52
				s-0.35,0.47-0.46,0.77c-0.11,0.29-0.16,0.61-0.16,0.94c0,0.33,0.05,0.64,0.16,0.94c0.11,0.29,0.26,0.55,0.46,0.77
				c0.2,0.22,0.44,0.39,0.71,0.52C179.18,100.87,179.5,100.93,179.84,100.93z"/>
			<path class="st0" d="M184.31,95.5h0.81v5.28h2.75v0.77h-3.57V95.5z"/>
			<path class="st0" d="M188.87,95.5h0.81v5.28h2.75v0.77h-3.57V95.5z"/>
			<path class="st0" d="M196.2,101.7c-0.46,0-0.88-0.08-1.26-0.24c-0.38-0.16-0.71-0.39-0.99-0.67c-0.27-0.28-0.49-0.62-0.64-1.01
				c-0.16-0.39-0.23-0.81-0.23-1.26s0.08-0.87,0.23-1.26c0.15-0.39,0.37-0.72,0.64-1.01c0.27-0.29,0.6-0.51,0.99-0.67
				c0.38-0.16,0.81-0.24,1.26-0.24c0.46,0,0.88,0.08,1.26,0.24c0.38,0.16,0.71,0.39,0.99,0.67c0.27,0.28,0.49,0.62,0.64,1.01
				c0.16,0.39,0.23,0.81,0.23,1.26s-0.08,0.87-0.23,1.26c-0.16,0.39-0.37,0.72-0.64,1.01c-0.27,0.29-0.6,0.51-0.99,0.67
				C197.07,101.62,196.65,101.7,196.2,101.7z M196.2,100.93c0.34,0,0.66-0.06,0.93-0.19c0.28-0.13,0.51-0.3,0.71-0.52
				c0.2-0.22,0.35-0.47,0.46-0.77c0.11-0.29,0.16-0.6,0.16-0.94c0-0.33-0.05-0.64-0.16-0.94c-0.11-0.29-0.26-0.55-0.46-0.77
				c-0.2-0.22-0.44-0.39-0.71-0.52c-0.28-0.13-0.59-0.19-0.93-0.19c-0.34,0-0.66,0.06-0.93,0.19c-0.28,0.13-0.51,0.3-0.71,0.52
				s-0.35,0.47-0.46,0.77c-0.11,0.29-0.16,0.61-0.16,0.94c0,0.33,0.05,0.64,0.16,0.94c0.11,0.29,0.26,0.55,0.46,0.77
				c0.2,0.22,0.44,0.39,0.71,0.52C195.54,100.87,195.85,100.93,196.2,100.93z"/>
			<path class="st0" d="M207.37,96.8c-0.17-0.22-0.38-0.39-0.64-0.51c-0.26-0.12-0.53-0.18-0.81-0.18c-0.34,0-0.65,0.06-0.92,0.19
				c-0.27,0.13-0.51,0.3-0.7,0.53c-0.19,0.22-0.35,0.48-0.45,0.78c-0.11,0.3-0.16,0.62-0.16,0.96c0,0.32,0.05,0.62,0.15,0.91
				c0.1,0.28,0.25,0.54,0.44,0.75s0.43,0.39,0.7,0.51c0.28,0.13,0.59,0.19,0.94,0.19c0.34,0,0.65-0.07,0.91-0.21s0.48-0.34,0.66-0.6
				l0.69,0.52c-0.05,0.06-0.12,0.15-0.24,0.27c-0.11,0.12-0.26,0.23-0.45,0.35c-0.19,0.12-0.41,0.22-0.67,0.31
				c-0.26,0.09-0.57,0.13-0.91,0.13c-0.47,0-0.9-0.09-1.28-0.27c-0.38-0.18-0.71-0.42-0.97-0.72c-0.27-0.3-0.47-0.63-0.61-1
				c-0.14-0.37-0.21-0.75-0.21-1.13c0-0.47,0.08-0.9,0.23-1.29c0.15-0.4,0.37-0.74,0.64-1.03c0.27-0.29,0.6-0.51,0.99-0.67
				c0.38-0.16,0.81-0.24,1.27-0.24c0.4,0,0.78,0.08,1.16,0.23c0.38,0.15,0.69,0.39,0.94,0.71L207.37,96.8z"/>
			<path class="st0" d="M212.08,101.7c-0.46,0-0.88-0.08-1.26-0.24c-0.38-0.16-0.71-0.39-0.99-0.67c-0.27-0.28-0.49-0.62-0.64-1.01
				c-0.16-0.39-0.23-0.81-0.23-1.26s0.08-0.87,0.23-1.26c0.15-0.39,0.37-0.72,0.64-1.01c0.27-0.29,0.6-0.51,0.99-0.67
				c0.38-0.16,0.81-0.24,1.26-0.24c0.46,0,0.88,0.08,1.26,0.24c0.38,0.16,0.71,0.39,0.99,0.67c0.27,0.28,0.49,0.62,0.64,1.01
				c0.16,0.39,0.23,0.81,0.23,1.26s-0.08,0.87-0.23,1.26c-0.16,0.39-0.37,0.72-0.64,1.01c-0.27,0.29-0.6,0.51-0.99,0.67
				C212.96,101.62,212.54,101.7,212.08,101.7z M212.08,100.93c0.34,0,0.66-0.06,0.93-0.19c0.28-0.13,0.51-0.3,0.71-0.52
				c0.2-0.22,0.35-0.47,0.46-0.77c0.11-0.29,0.16-0.6,0.16-0.94c0-0.33-0.05-0.64-0.16-0.94c-0.11-0.29-0.26-0.55-0.46-0.77
				c-0.2-0.22-0.44-0.39-0.71-0.52c-0.28-0.13-0.59-0.19-0.93-0.19c-0.34,0-0.66,0.06-0.93,0.19c-0.28,0.13-0.51,0.3-0.71,0.52
				s-0.35,0.47-0.46,0.77c-0.11,0.29-0.16,0.61-0.16,0.94c0,0.33,0.05,0.64,0.16,0.94c0.11,0.29,0.26,0.55,0.46,0.77
				c0.2,0.22,0.44,0.39,0.71,0.52C211.42,100.87,211.73,100.93,212.08,100.93z"/>
			<path class="st0" d="M216.48,95.5h1.21l1.91,4.58h0.03l1.89-4.58h1.21v6.05h-0.81v-4.97h-0.02l-2.03,4.97h-0.54l-2.03-4.97h-0.02
				v4.97h-0.81V95.5z"/>
			<path class="st0" d="M225.1,95.5v3.71c0,0.19,0.03,0.38,0.08,0.59c0.05,0.2,0.14,0.39,0.25,0.56c0.12,0.17,0.27,0.31,0.47,0.42
				c0.19,0.11,0.43,0.16,0.71,0.16c0.28,0,0.52-0.05,0.71-0.16c0.19-0.11,0.35-0.25,0.47-0.42c0.12-0.17,0.2-0.36,0.25-0.56
				c0.05-0.2,0.08-0.4,0.08-0.59V95.5h0.81v3.84c0,0.35-0.06,0.67-0.18,0.96c-0.12,0.29-0.28,0.54-0.49,0.75
				c-0.21,0.21-0.45,0.37-0.74,0.49c-0.28,0.11-0.59,0.17-0.92,0.17c-0.33,0-0.63-0.06-0.92-0.17c-0.28-0.11-0.53-0.28-0.74-0.49
				c-0.21-0.21-0.37-0.46-0.49-0.75c-0.12-0.29-0.18-0.61-0.18-0.96V95.5H225.1z"/>
			<path class="st0" d="M230.53,95.5h1.07l3.31,4.97h0.02V95.5h0.81v6.05h-1.03l-3.34-4.97h-0.02v4.97h-0.81V95.5z"/>
			<path class="st0" d="M239.32,95.5h0.74l2.57,6.05h-0.95l-0.6-1.5h-2.86l-0.59,1.5h-0.95L239.32,95.5z M240.78,99.33l-1.12-2.78
				h-0.02l-1.14,2.78H240.78z"/>
			<path class="st0" d="M243.58,95.5h0.81v5.28h2.75v0.77h-3.57V95.5z"/>
		</g>
		<g>
			<path class="st0" d="M192.04,78.17c0-0.06,0.02-0.28,0.21-0.74l10.64-23.4l-9.67,1.95l-9.78,21.48
				c-0.18,0.55-0.27,1.07-0.27,1.56c0,1.6,0.87,2.89,2.59,3.81c1.28,0.66,2.69,1,4.19,1h4.44l2.35-4.81h-3.17
				C192.04,79.02,192.04,78.49,192.04,78.17z"/>
			<path class="st0" d="M178.79,61.91l-6.72,14.76c-0.04,0.08-0.08,0.13-0.11,0.18c-0.51,0.74-1.33,1.28-2.63,1.76
				c-0.76,0.27-1.23,0.36-2,0.41h-11.54c-1.52,0-1.52-0.54-1.52-0.9c0-0.22,0.06-0.46,0.19-0.74l7.05-15.53l-8.77,0.05l-7.06,15.53
				c-0.18,0.51-0.27,1.03-0.27,1.54c0,1.58,0.89,2.9,2.58,3.8c1.28,0.69,2.7,1.05,4.21,1.05h18.4c1.94-0.05,2.79-0.15,4.33-0.7
				c2.1-0.76,3.44-1.67,4.32-2.93c0.06-0.08,0.13-0.2,0.22-0.37l8.16-17.98L178.79,61.91z"/>
			<path class="st0" d="M237.4,66.72c0-1.62-0.89-2.93-2.58-3.81c-1.27-0.66-2.7-1-4.24-1h-25.24l-2.19,4.81h23.81
				c0.5,0,0.92,0.1,1.26,0.3c0.32,0.18,0.38,0.36,0.38,0.6c0,0.2-0.06,0.43-0.18,0.69l-0.27,0.6h-20.27c-3.81,0-6.36,1.34-7.56,3.99
				l-2.65,5.86c-0.15,0.34-0.23,0.76-0.23,1.28c0,1.73,0.99,3.8,5.71,3.8h20.19c1.76-0.05,2.61-0.2,3.97-0.69
				c2.09-0.76,3.43-1.66,4.34-2.94c0.11-0.16,0.25-0.42,0.38-0.69l5.11-11.24C237.31,67.73,237.4,67.21,237.4,66.72z M225.45,75.94
				L225,75.77c-0.12,0.23-0.28,0.54-0.36,0.66c-0.52,0.74-1.33,1.28-2.65,1.76c-0.84,0.3-1.33,0.39-2.27,0.42h-11.81
				c-0.74,0-1.03-0.15-1.08-0.21c-0.01-0.02-0.02-0.08,0-0.2l1.49-3.27c0.28-0.63,0.64-0.99,1.14-1.14
				c0.14-0.04,0.62-0.15,2.06-0.15h14.43l-0.94,2.09L225.45,75.94L225.45,75.94z"/>
			<path class="st0" d="M104.03,80.22c0.18-0.24,0.45-0.78,0.61-1.1l4.96-10.95c0.19-0.52,0.28-1.05,0.28-1.57
				c0-1.61-0.87-2.88-2.6-3.78c-1.24-0.63-2.64-0.96-4.15-0.96h-18.4c-1.95,0.05-2.8,0.15-4.33,0.7c-2.12,0.77-3.45,1.68-4.33,2.94
				c-0.16,0.22-0.4,0.69-0.47,0.84l-4.98,11c-0.22,0.43-0.32,0.97-0.32,1.64c0,1.58,0.89,2.9,2.58,3.8
				c1.28,0.69,2.69,1.05,4.21,1.05h18.66c1.75-0.05,2.6-0.2,3.97-0.69C101.8,82.39,103.14,81.49,104.03,80.22z M100.92,67.5
				c0,0.22-0.07,0.49-0.21,0.81l-3.65,7.98c-0.11,0.22-0.23,0.46-0.3,0.55c-0.52,0.74-1.34,1.28-2.64,1.76
				c-0.8,0.28-1.29,0.37-2.16,0.42H80.68c-1.53,0-1.53-0.54-1.53-0.9c0-0.23,0.06-0.47,0.18-0.73l3.51-7.69l0.06-0.11
				c0.12-0.24,0.3-0.59,0.38-0.71c0.52-0.74,1.34-1.29,2.65-1.76c0.98-0.35,1.5-0.41,2.77-0.44l0.08,0H99.5
				C100.92,66.69,100.92,67.18,100.92,67.5z"/>
			<path class="st0" d="M147.81,66.64c0-1.61-0.89-2.88-2.64-3.78c-1.27-0.64-2.71-0.96-4.3-0.96H122.3
				c-1.75,0.05-2.64,0.16-4.15,0.69c-2.1,0.77-3.44,1.68-4.32,2.94c-0.16,0.22-0.41,0.71-0.66,1.2l-12.24,26.8h8.76l4.44-9.7h19.23
				c3.64,0,6.48-1.07,8.44-3.17l5.75-12.49C147.72,67.66,147.81,67.14,147.81,66.64z M126.3,66.69h10.96c1.48,0,1.48,0.51,1.48,0.86
				c0,0.27-0.06,0.52-0.17,0.75l-4.21,9.21c-0.46,0.77-1.35,1.15-2.74,1.15h-14.95l4.04-8.86c0.11-0.24,0.38-0.78,0.48-0.91
				c0.53-0.75,1.35-1.29,2.64-1.76C124.73,66.8,125.24,66.72,126.3,66.69z"/>
			<path class="st0" d="M266.14,62.87L266.14,62.87c-1.27-0.64-2.71-0.96-4.27-0.96h-12.53c-1.76,0.05-2.65,0.16-4.15,0.69
				c-2.11,0.77-3.45,1.68-4.33,2.94c-0.22,0.3-0.64,1.15-0.74,1.37l-7.73,16.93h8.91l6.54-14.38c0.11-0.25,0.27-0.53,0.33-0.62
				c0.52-0.73,1.34-1.28,2.64-1.76c0.69-0.24,1.12-0.34,1.67-0.39h5.75c1.6,0,1.6,0.54,1.6,0.89c0,0.23-0.06,0.48-0.18,0.73
				l-1.53,3.38h8.8l1.58-3.5c0.18-0.52,0.27-1.04,0.27-1.54C268.77,65.03,267.89,63.76,266.14,62.87z"/>
			<path class="st0" d="M136.22,43.61l6.84-15.05c0.54-0.73,1.35-1.26,2.62-1.71c0.62-0.23,1.07-0.33,1.7-0.39h11.73
				c1.56,0,1.56,0.54,1.56,0.9c0,0.24-0.06,0.48-0.17,0.73l-7.09,15.53h8.88l7.08-15.57c0.2-0.44,0.3-0.99,0.3-1.62
				c0-1.61-0.89-2.88-2.65-3.78c-1.27-0.63-2.72-0.95-4.29-0.95l-19.43,0c-1.32,0.07-2.14,0.23-3.37,0.66
				c-2.09,0.76-3.42,1.66-4.31,2.92l-8.37,18.34H136.22z"/>
			<path class="st0" d="M121.78,26.5c0.5,0,0.92,0.1,1.26,0.29l0,0c0.32,0.18,0.38,0.37,0.38,0.61c0,0.19-0.06,0.44-0.17,0.7
				l-0.28,0.61h-20.27c-3.81,0-6.36,1.34-7.57,3.98l-2.63,5.85c-0.16,0.35-0.24,0.76-0.24,1.28c0,1.73,0.99,3.8,5.71,3.8h20.18
				c1.74-0.05,2.6-0.2,3.97-0.69c2.09-0.76,3.43-1.66,4.34-2.95c0.08-0.13,0.23-0.38,0.39-0.68l5.11-11.24
				c0.17-0.52,0.26-1.05,0.26-1.56c0-1.62-0.89-2.94-2.58-3.81c-1.27-0.66-2.7-1-4.23-1h-25.23l-2.2,4.81H121.78z M114.59,38.4
				h-11.85c-0.74,0-1.02-0.15-1.07-0.21c0,0-0.02-0.05,0-0.19l1.48-3.27c0.28-0.62,0.64-0.98,1.13-1.13
				c0.18-0.05,0.7-0.14,2.08-0.14h14.43l-0.92,2.05c-0.25,0.49-0.35,0.67-0.39,0.72c-0.53,0.75-1.34,1.29-2.64,1.76
				C116,38.26,115.51,38.35,114.59,38.4z"/>
			<path class="st0" d="M204.56,38.76c0,1.61,0.87,2.89,2.58,3.8c1.28,0.7,2.7,1.05,4.21,1.05h18.67c1.75-0.05,2.6-0.2,3.97-0.69
				c2.1-0.76,3.44-1.67,4.33-2.94c0.14-0.2,0.38-0.65,0.6-1.09l4.97-10.95c0.18-0.54,0.27-1.07,0.27-1.57
				c0-1.61-0.87-2.88-2.59-3.78c-1.24-0.64-2.64-0.96-4.15-0.96h-18.39l-0.48,0.01v0.01c-1.58,0.05-2.44,0.18-3.86,0.68
				c-2.11,0.77-3.44,1.68-4.33,2.94c-0.04,0.05-0.16,0.21-0.47,0.84l-5,11.02C204.66,37.61,204.56,38.14,204.56,38.76z
				 M213.43,37.91c0-0.24,0.05-0.47,0.17-0.72l3.5-7.67c0.32-0.64,0.43-0.81,0.45-0.85c0.53-0.74,1.34-1.29,2.64-1.76
				c0.94-0.33,1.44-0.41,2.78-0.44l0.2-0.01h10.6c1.42,0,1.42,0.49,1.42,0.82c0,0.15-0.04,0.41-0.21,0.81l-3.64,7.97
				c-0.16,0.32-0.26,0.51-0.3,0.57c-0.53,0.74-1.34,1.28-2.65,1.75c-0.8,0.29-1.29,0.38-2.16,0.42h-11.27
				C213.43,38.8,213.43,38.26,213.43,37.91z"/>
			<path class="st0" d="M167.24,38.76c0,1.63,0.87,2.92,2.58,3.85c1.24,0.67,2.66,1,4.21,1h25.38l2.21-4.77h-23.97
				c-1.57,0-1.57-0.56-1.57-0.93c0-0.06,0.02-0.27,0.22-0.74l3.71-8.18l0.07-0.13c0.06-0.1,0.11-0.2,0.15-0.25
				c0.53-0.74,1.34-1.29,2.64-1.76c0.63-0.23,1.09-0.33,1.71-0.39h11.87c1.52,0,1.52,0.52,1.52,0.86c0,0.13-0.04,0.37-0.22,0.77
				l-0.34,0.78h8.74l0.42-0.92c0.18-0.56,0.27-1.07,0.27-1.57c0-1.59-0.89-2.89-2.56-3.74c-1.25-0.64-2.65-0.96-4.18-0.96l-19.41,0
				c-1.32,0.07-2.14,0.23-3.37,0.66c-2.1,0.77-3.43,1.67-4.31,2.92c-0.06,0.06-0.1,0.14-0.15,0.23l-5.33,11.73
				C167.33,37.74,167.24,38.26,167.24,38.76z"/>
		</g>
	</g>
	<path class="st0" d="M77.62,52.68c-1.26-1.67-4.13-2.52-8.51-2.52l-13.62,0h-2.24c-2.86,0-5.48,1.6-6.78,4.15l-0.75,1.46l0,0
		L31.95,82.69h11.69l6.33-12.32h7.03c4.96,0,9.17-0.93,12.52-2.78c3.35-1.85,5.89-4.45,7.57-7.72
		C78.69,56.74,78.87,54.33,77.62,52.68z M66.77,60.47c-0.71,1.39-1.95,2.55-3.66,3.44c-1.7,0.88-4.1,1.32-7.14,1.32H51.6l3.59-6.98
		c0.9-1.8,2.74-2.94,4.75-2.94h0.14h0.94h0.31c3.06,0,4.86,0.49,5.53,1.51C67.53,57.83,67.5,59.06,66.77,60.47z"/>
	<path class="st0" d="M97.49,13.31c-1.15-1.48-3.63-2.23-7.36-2.23l-16.13,0l0,0h-2.24c-2.85,0-5.45,1.59-6.76,4.12l-0.37,0.69
		l-4.78,8.98l-0.37,0.68l-1.36,2.49l0.02,0.02l-8.13,15.26h20.77c0.2,0,0.45-0.01,0.76-0.03c0.44-0.01,1.01-0.03,1.63-0.08
		c1.9-0.15,3.98-0.41,4.59-0.49v0c1.6-0.22,2.93-0.53,3.95-0.91c2.05-0.78,3.93-1.85,5.59-3.18c1.63-1.31,2.91-2.82,3.82-4.49
		c1.05-1.99,1.3-3.64,0.74-4.92c-0.48-1.08-1.66-1.91-3.48-2.46l0,0l-0.05-0.01c-0.24-0.07-0.5-0.14-0.77-0.21l-1.33-0.36
		c0,0,2.03-0.54,3.22-1c0.01,0,0.01-0.01,0.02-0.01c1.21-0.42,2.28-0.93,3.21-1.51c2.15-1.36,3.75-3,4.76-4.88
		C98.61,16.56,98.63,14.77,97.49,13.31z M81.74,33.28c-0.75,1.38-1.93,2.5-3.5,3.31c-1.57,0.82-3.7,1.22-6.49,1.22h-8.54l3.53-6.62
		l0.27-0.54c0.61-1.2,1.84-1.95,3.19-1.95h0.77h5.23c2.88,0,4.65,0.4,5.41,1.23C82.43,30.79,82.47,31.92,81.74,33.28z M86.99,20.59
		c-0.75,1.42-1.85,2.52-3.29,3.27c-1.43,0.75-3.41,1.12-6.04,1.12h-7.65L73.73,18h0l0,0l0.3-0.57l0.02-0.02c0,0,0.01-0.01,0.01-0.01
		c0.45-0.82,1.31-1.33,2.24-1.33h0.54h0.61h4.69c2.58,0,4.18,0.39,4.88,1.18C87.75,18.09,87.73,19.21,86.99,20.59z"/>
</g>
</svg>
