<?xml version="1.0" encoding="utf-8"?>
<!-- Generator: Adobe Illustrator 27.5.0, SVG Export Plug-In . SVG Version: 6.00 Build 0)  -->
<svg version="1.1" id="Capa_1" xmlns="http://www.w3.org/2000/svg" xmlns:xlink="http://www.w3.org/1999/xlink" x="0px" y="0px"
	 viewBox="0 0 125 98" style="enable-background:new 0 0 125 98;" xml:space="preserve">
<style type="text/css">
	.st0{fill:#F47920;}
</style>
<g>
	<path class="st0" d="M76.67,28.31c-1.9-2.43-5.79-3.66-11.58-3.66l-23.23,0l0,0h-4.05c-4.09,0-7.85,2.21-9.85,5.77c0,0,0,0,0,0
		l-7.92,14.87l-0.54,0.99l-1.98,3.63l-0.41,0.83l0.01,0.01L4.86,73.76h32.06c0.29,0,0.68-0.02,1.12-0.04
		c0.67-0.01,1.51-0.05,2.44-0.12c2.81-0.22,5.87-0.6,6.75-0.72c2.42-0.33,4.43-0.8,5.99-1.39c3.09-1.17,5.93-2.79,8.43-4.81
		c2.49-2,4.45-4.31,5.84-6.88c1.7-3.2,2.07-5.93,1.11-8.12c-0.71-1.58-2.19-2.82-4.42-3.72l-0.75-0.32
		c0.38-0.13,0.75-0.26,1.08-0.38l0.03-0.01c1.83-0.64,3.46-1.42,4.86-2.29c3.3-2.08,5.76-4.61,7.31-7.51
		C78.61,33.85,78.6,30.77,76.67,28.31z M52.41,57.79c-1.04,1.92-2.68,3.47-4.86,4.6c-2.21,1.15-5.22,1.71-9.19,1.71H26.82
		l5.79-10.86l0.02-0.02c0.48-0.8,1.35-1.3,2.29-1.3h9.92c3.97,0,6.49,0.54,7.47,1.61C53.32,54.62,53.35,56.02,52.41,57.79z
		 M60.03,39.33c-1.03,1.96-2.57,3.48-4.56,4.52c-2.01,1.06-4.8,1.57-8.54,1.57H36.71l5.41-10.16l0.04-0.05
		c0.6-1.04,1.71-1.68,2.91-1.68h8.4c3.55,0,5.8,0.52,6.69,1.53C60.5,35.46,61.5,36.62,60.03,39.33z"/>
	<path class="st0" d="M118.72,28.33c-2.06-2.72-6.52-4.1-13.26-4.1l-21.38,0c-1.23,0.02-2.13,0.07-2.94,0.18
		c-1.6,0.21-3.17,0.71-4.57,1.5c0.53,0.42,0.99,0.88,1.39,1.38c1.62,2.08,2.97,5.66,0.18,10.92c-1.69,3.17-4.34,5.9-7.88,8.13
		c-0.87,0.54-1.82,1.05-2.84,1.51c1.23,0.88,2.12,1.93,2.67,3.16c1.18,2.67,0.79,5.89-1.16,9.55c-1.5,2.78-3.6,5.26-6.26,7.39
		c-2.63,2.12-5.62,3.83-8.88,5.06c-0.72,0.27-1.52,0.52-2.41,0.74h17.65l9.22-17.94h9.56c7.4,0,13.71-1.41,18.75-4.18
		c5.06-2.8,8.92-6.74,11.46-11.7C120.59,35,120.82,31.1,118.72,28.33z M101.58,40.09c-0.99,1.92-2.7,3.53-5.1,4.77
		c-2.39,1.24-5.8,1.86-10.14,1.86h-5.48l4.7-9.02c1.39-2.67,4.13-4.33,7.14-4.33h1.45c4.19,0,6.75,0.66,7.59,1.96
		C102.61,36.63,102.56,38.19,101.58,40.09z"/>
</g>
</svg>
