<svg id="Capa_1" data-name="Capa 1" xmlns="http://www.w3.org/2000/svg" viewBox="0 0 131.56 37.51"><defs><style>.cls-1{fill:#fff;}</style></defs><title>Logo Popular Pensiones header</title><path class="cls-1" d="M93.91,16.43c-.91,0-1-.37-1-.69a1.46,1.46,0,0,1,.13-.48L98.28,3.68l-4.37.88-5,10.89a2.5,2.5,0,0,0-.13.73A2,2,0,0,0,90,17.92a4.45,4.45,0,0,0,2,.49h2.13l1-2Z"/><path class="cls-1" d="M86.85,7.63l-3.39,7.46-.08.12a2.84,2.84,0,0,1-1.47,1,3.55,3.55,0,0,1-1.11.23H74.88c-.91,0-1-.38-1-.71a1.07,1.07,0,0,1,.12-.48l3.46-7.63-4,0-3.56,7.82a2,2,0,0,0-.13.71A1.94,1.94,0,0,0,71,17.9a4.3,4.3,0,0,0,2,.51h9.44a5.8,5.8,0,0,0,2.15-.35,4,4,0,0,0,2.1-1.42.49.49,0,0,0,.09-.15l4-8.88Z"/><path class="cls-1" d="M114.62,8.12a4.36,4.36,0,0,0-2.07-.49H99.75l-.9,2H110.7a1.38,1.38,0,0,1,.76.19.54.54,0,0,1,.32.52,1.13,1.13,0,0,1-.11.46l-.2.45H100.9c-1.86,0-3.09.64-3.67,1.9l-1.35,3a1.23,1.23,0,0,0-.1.55c0,1.13.9,1.71,2.69,1.71h10.35a5.53,5.53,0,0,0,2-.34,4.14,4.14,0,0,0,2.1-1.42,2.15,2.15,0,0,0,.18-.32l2.62-5.75a2.41,2.41,0,0,0,.12-.72A1.92,1.92,0,0,0,114.62,8.12Zm-4.7,6.47c-.06.13-.16.32-.21.4a2.91,2.91,0,0,1-1.48,1,3.23,3.23,0,0,1-1.25.23h-6.06a1,1,0,0,1-.75-.19.38.38,0,0,1,0-.33L100.9,14a1.18,1.18,0,0,1,.73-.72,4.66,4.66,0,0,1,1.14-.08h7.79Z"/><path class="cls-1" d="M49.84,8.08a4.42,4.42,0,0,0-2-.47H38.37A5.75,5.75,0,0,0,36.23,8a4,4,0,0,0-2.11,1.42,3.61,3.61,0,0,0-.22.39l-2.56,5.66a1.61,1.61,0,0,0-.14.73,2,2,0,0,0,1.19,1.74,4.32,4.32,0,0,0,2,.51H44a5.48,5.48,0,0,0,2-.34,4.17,4.17,0,0,0,2.11-1.42,5.67,5.67,0,0,0,.28-.52l2.54-5.6A2.21,2.21,0,0,0,51,9.8,1.9,1.9,0,0,0,49.84,8.08Zm-3,2.7-1.88,4.11a2,2,0,0,1-.17.31,2.89,2.89,0,0,1-1.47,1,4,4,0,0,1-1.19.23h-5.8c-.91,0-1-.38-1-.71a1.07,1.07,0,0,1,.12-.48l1.81-4a3.78,3.78,0,0,1,.24-.45,2.88,2.88,0,0,1,1.47-1,3.84,3.84,0,0,1,1.5-.24H46c.86,0,1,.35,1,.66A1.28,1.28,0,0,1,46.8,10.78Z"/><path class="cls-1" d="M69.68,8.1a4.62,4.62,0,0,0-2.09-.47H58.05A5.7,5.7,0,0,0,56,8a4,4,0,0,0-2.1,1.43,6.39,6.39,0,0,0-.39.71h0L47.44,23.39h4l2.28-5h10a5.46,5.46,0,0,0,4.16-1.55l2.9-6.33a2.25,2.25,0,0,0,.12-.71A1.9,1.9,0,0,0,69.68,8.1Zm-3.05,2.68-2.18,4.74a1.7,1.7,0,0,1-1.62.71h-8L57,11.33h0c0-.08.2-.41.27-.51a2.88,2.88,0,0,1,1.47-1A3.65,3.65,0,0,1,60.1,9.6h5.63c.9,0,1,.36,1,.68A1.24,1.24,0,0,1,66.63,10.78Z"/><path class="cls-1" d="M130.34,8.1a4.57,4.57,0,0,0-2.07-.47h-6.43a5.67,5.67,0,0,0-2.06.34,4.12,4.12,0,0,0-2.11,1.43c-.08.12-.27.49-.35.66l-3.82,8.35h4l3.29-7.25c.06-.13.15-.29.19-.36a2.91,2.91,0,0,1,1.48-1,3.08,3.08,0,0,1,.94-.21h3c.94,0,1.07.37,1.07.7a1.07,1.07,0,0,1-.12.48l-.63,1.38h4l.73-1.63a2,2,0,0,0,.13-.71A1.9,1.9,0,0,0,130.34,8.1Z"/><path class="cls-1" d="M34.66,2.68c-.69-.91-2.18-1.35-4.48-1.35H22.71a5.4,5.4,0,0,0-1.94.28,3.62,3.62,0,0,0-1.88,1.18s0,0,0,0L11,18.24h6.35L20.54,12H24a13.24,13.24,0,0,0,6.46-1.44,9.47,9.47,0,0,0,3.93-4Q35.67,4,34.66,2.68Zm-5.82,4a4,4,0,0,1-1.79,1.68A7.81,7.81,0,0,1,23.5,9H21.55l1.81-3.52h0c0-.05.15-.27.2-.34a2.06,2.06,0,0,1,1.08-.68,3.3,3.3,0,0,1,1.11-.16h.47q2.22,0,2.67.69A1.6,1.6,0,0,1,28.84,6.67Z"/><path class="cls-1" d="M25.58,25.51h4.11c3,0,3.75,1.81,3.75,3.27s-.76,3.27-3.75,3.27H27.16v5.16H25.58Zm1.58,5.16h2.08c1.26,0,2.52-.31,2.52-1.89S30.5,26.9,29.24,26.9H27.16Z"/><polygon class="cls-1" points="34.89 25.51 42.44 25.51 42.44 27 36.48 27 36.48 30.49 42.03 30.49 42.03 31.97 36.48 31.97 36.48 35.72 42.74 35.72 42.74 37.21 34.89 37.21 34.89 25.51"/><polygon class="cls-1" points="44.51 25.51 46.59 25.51 53.04 35.13 53.07 35.13 53.07 25.51 54.65 25.51 54.65 37.21 52.64 37.21 46.13 27.59 46.09 27.59 46.09 37.21 44.51 37.21 44.51 25.51"/><path class="cls-1" d="M57.53,34.76A2.92,2.92,0,0,0,60,36a2.17,2.17,0,0,0,2.33-2c0-2.69-5.77-1-5.77-5.59,0-1.37,1.16-3.27,4-3.27a4.06,4.06,0,0,1,3.37,1.34l-1.29,1.17a2.44,2.44,0,0,0-2.08-1c-1.75,0-2.28,1.06-2.28,1.78,0,3,5.76,1.2,5.76,5.41,0,2.26-1.81,3.62-4.06,3.62a4.51,4.51,0,0,1-3.74-1.62Z"/><rect class="cls-1" x="65.89" y="25.51" width="1.58" height="11.7"/><path class="cls-1" d="M69.28,31.36a6.1,6.1,0,1,1,12.19,0,6.1,6.1,0,1,1-12.19,0m10.51,0a4.42,4.42,0,1,0-8.83,0,4.42,4.42,0,1,0,8.83,0"/><polygon class="cls-1" points="83.27 25.51 85.36 25.51 91.8 35.13 91.83 35.13 91.83 25.51 93.42 25.51 93.42 37.21 91.4 37.21 84.89 27.59 84.86 27.59 84.86 37.21 83.27 37.21 83.27 25.51"/><polygon class="cls-1" points="95.95 25.51 103.5 25.51 103.5 27 97.53 27 97.53 30.49 103.08 30.49 103.08 31.97 97.53 31.97 97.53 35.72 103.8 35.72 103.8 37.21 95.95 37.21 95.95 25.51"/><path class="cls-1" d="M105.91,34.76A2.91,2.91,0,0,0,108.39,36a2.17,2.17,0,0,0,2.33-2c0-2.69-5.77-1-5.77-5.59,0-1.37,1.16-3.27,4-3.27a4.07,4.07,0,0,1,3.38,1.34L111,27.72a2.47,2.47,0,0,0-2.09-1c-1.74,0-2.27,1.06-2.27,1.78,0,3,5.76,1.2,5.76,5.41,0,2.26-1.82,3.62-4.06,3.62a4.5,4.5,0,0,1-3.74-1.62Z"/><path class="cls-1" d="M21.74,17.06c1.75,3.82,2.07,7.06.53,8.45-2.5,2.24-8.95-1.25-14.41-7.82S0,4,2.5,1.75C4.5,0,9,1.85,13.58,6l0-.79C8.55.72,3.5-1.24,1.2.82-1.71,3.43.86,11.46,6.93,18.75s13.36,11.1,16.26,8.49c1.9-1.7,1.45-5.73-.78-10.34Z"/></svg>