<svg id="Capa_1" data-name="Capa 1" xmlns="http://www.w3.org/2000/svg" viewBox="0 0 128.88 38.5"><defs><style>.cls-1{fill:#fff;}</style></defs><title>Logo popular seguros header</title><path class="cls-1" d="M91.92,16.23c-.89,0-1-.36-1-.68a1.46,1.46,0,0,1,.13-.48L96.21,3.53l-4.29.87L87,15.27a2.36,2.36,0,0,0-.12.72,1.92,1.92,0,0,0,1.17,1.73,4.18,4.18,0,0,0,2,.49h2.09l1-2Z"/><path class="cls-1" d="M85,7.47,81.66,14.9l-.07.12a2.83,2.83,0,0,1-1.44,1,3.26,3.26,0,0,1-1.1.22H73.24c-.89,0-1-.37-1-.7a1.2,1.2,0,0,1,.11-.48l3.4-7.6-3.89,0-3.49,7.79a2.25,2.25,0,0,0-.12.71,1.93,1.93,0,0,0,1.17,1.73,4.06,4.06,0,0,0,2,.51h9.27a5.63,5.63,0,0,0,2.11-.34,4.09,4.09,0,0,0,2.07-1.42L85,16.3l4-8.85Z"/><path class="cls-1" d="M112.25,8a4.31,4.31,0,0,0-2-.48H97.65l-.88,2H108.4a1.37,1.37,0,0,1,.75.19.54.54,0,0,1,.32.52,1.22,1.22,0,0,1-.11.45l-.2.46H98.78c-1.83,0-3,.64-3.59,1.89l-1.34,3a1.48,1.48,0,0,0-.1.56c0,1.13.89,1.7,2.64,1.7h10.17a5.35,5.35,0,0,0,1.93-.34,4.08,4.08,0,0,0,2.07-1.41c0-.07.11-.19.17-.32l2.57-5.73a2.41,2.41,0,0,0,.12-.72A1.91,1.91,0,0,0,112.25,8Zm-4.61,6.46a3.3,3.3,0,0,1-.21.39,2.86,2.86,0,0,1-1.45,1,3.32,3.32,0,0,1-1.23.23h-6a1,1,0,0,1-.73-.19.38.38,0,0,1,0-.33l.76-1.7a1.19,1.19,0,0,1,.72-.72,4.49,4.49,0,0,1,1.12-.08h7.65Z"/><path class="cls-1" d="M48.66,7.91a4.25,4.25,0,0,0-2-.46H37.4a5.34,5.34,0,0,0-2.1.35,3.94,3.94,0,0,0-2.07,1.41A3.61,3.61,0,0,0,33,9.6l-2.52,5.64a1.77,1.77,0,0,0-.13.73,1.93,1.93,0,0,0,1.18,1.73,4,4,0,0,0,2,.51h9.4a5.31,5.31,0,0,0,1.93-.34,4.08,4.08,0,0,0,2.07-1.41,5.67,5.67,0,0,0,.28-.52l2.49-5.59a2.11,2.11,0,0,0,.13-.72A1.93,1.93,0,0,0,48.66,7.91Zm-3,2.69-1.85,4.1a2,2,0,0,1-.17.31,2.8,2.8,0,0,1-1.44,1,3.52,3.52,0,0,1-1.17.22H35.36c-.89,0-1-.37-1-.7a1.15,1.15,0,0,1,.11-.47l1.78-4,.23-.45a2.86,2.86,0,0,1,1.45-1,3.71,3.71,0,0,1,1.48-.24h5.45c.85,0,.95.35.95.66A1.34,1.34,0,0,1,45.68,10.6Z"/><path class="cls-1" d="M68.14,7.93a4.62,4.62,0,0,0-2.06-.46H56.71a5.23,5.23,0,0,0-2,.34,4,4,0,0,0-2.07,1.42c-.1.13-.32.6-.38.71h0L46.31,23.17h3.88l2.24-5h9.85a5.29,5.29,0,0,0,4.08-1.54l2.85-6.31a2.25,2.25,0,0,0,.12-.71A1.91,1.91,0,0,0,68.14,7.93Zm-3,2.67L63,15.34a1.7,1.7,0,0,1-1.59.7H53.51l2.19-4.88h0a4.92,4.92,0,0,1,.26-.51,2.86,2.86,0,0,1,1.45-1,3.45,3.45,0,0,1,1.32-.23h5.53c.88,0,1,.36,1,.68A1.19,1.19,0,0,1,65.14,10.6Z"/><path class="cls-1" d="M127.69,7.93a4.6,4.6,0,0,0-2-.46h-6.32a5.23,5.23,0,0,0-2,.34,4,4,0,0,0-2.07,1.42,5.76,5.76,0,0,0-.35.66l-3.75,8.32h4L118.35,11a2.29,2.29,0,0,1,.19-.36,2.82,2.82,0,0,1,1.45-1,2.9,2.9,0,0,1,.92-.21h2.89c.93,0,1,.37,1,.7a1,1,0,0,1-.11.47L124.12,12H128l.73-1.62a2.25,2.25,0,0,0,.12-.71A1.91,1.91,0,0,0,127.69,7.93Z"/><path class="cls-1" d="M33.75,2.53c-.67-.9-2.13-1.35-4.39-1.35H22a5.35,5.35,0,0,0-1.9.29,3.58,3.58,0,0,0-1.86,1.17l0,0L10.51,18h6.22l3.17-6.26h3.41a12.81,12.81,0,0,0,6.34-1.43,9.37,9.37,0,0,0,3.85-4C34.34,4.7,34.42,3.43,33.75,2.53Zm-5.7,4a4,4,0,0,1-1.76,1.68,7.69,7.69,0,0,1-3.49.65H20.89l1.78-3.51h0c0-.06.14-.28.19-.35a2,2,0,0,1,1.06-.67A3,3,0,0,1,25,4.15h.46c1.46,0,2.33.23,2.62.68A1.61,1.61,0,0,1,28.05,6.51Z"/><path class="cls-1" d="M21.41,17.06c1.72,3.82,2,7.06.52,8.45-2.46,2.24-8.82-1.26-14.19-7.82S0,4,2.46,1.75c2-1.8,6.45.1,10.91,4.29l0-.79C8.41.72,3.45-1.24,1.18.82-1.68,3.43.85,11.46,6.83,18.75s13.15,11.1,16,8.49c1.87-1.7,1.43-5.73-.77-10.35Z"/><path class="cls-1" d="M26.76,35.89a2.73,2.73,0,0,0,2.33,1.2,2.05,2.05,0,0,0,2.19-1.87c0-2.57-5.42-1-5.42-5.33,0-1.32,1.08-3.13,3.73-3.13A3.78,3.78,0,0,1,32.76,28l-1.22,1.12a2.27,2.27,0,0,0-1.95-1c-1.65,0-2.15,1-2.15,1.71,0,2.82,5.43,1.13,5.43,5.16,0,2.16-1.71,3.45-3.83,3.45A4.18,4.18,0,0,1,25.53,37Z"/><path class="cls-1" d="M34.44,27h7.11v1.43H35.93V31.8h5.23v1.42H35.93V36.8h5.89v1.42H34.44Z"/><path class="cls-1" d="M52.68,32v5.51a8.84,8.84,0,0,1-4.17,1,5.63,5.63,0,0,1-5.89-5.87,5.65,5.65,0,0,1,5.74-5.87,5.23,5.23,0,0,1,4.1,1.45L51.4,29.36a4.13,4.13,0,0,0-3-1.18,4.18,4.18,0,0,0-4.16,4.45,4.3,4.3,0,0,0,4.28,4.46,5.75,5.75,0,0,0,2.71-.59V33.39H48.74V32Z"/><path class="cls-1" d="M56.05,27V33.9c0,1.38.69,3.19,2.77,3.19s2.77-1.81,2.77-3.19V27h1.5v7.09a4.27,4.27,0,1,1-8.53,0V27Z"/><path class="cls-1" d="M65.08,27H69c2.81,0,3.53,1.73,3.53,3.13a3,3,0,0,1-2.71,2.95l3.13,5.1H71l-2.8-4.92H66.57v4.92H65.08ZM66.57,32h2c1.18,0,2.36-.28,2.36-1.8s-1.18-1.8-2.36-1.8h-2Z"/><path class="cls-1" d="M73.26,32.63a5.74,5.74,0,1,1,11.47,0,5.74,5.74,0,1,1-11.47,0Zm9.89,0a4.16,4.16,0,1,0-8.31,0,4.17,4.17,0,1,0,8.31,0Z"/><path class="cls-1" d="M86.57,35.89a2.73,2.73,0,0,0,2.33,1.2,2.05,2.05,0,0,0,2.19-1.87c0-2.57-5.42-1-5.42-5.33,0-1.32,1.09-3.13,3.73-3.13A3.76,3.76,0,0,1,92.57,28l-1.21,1.12a2.3,2.3,0,0,0-2-1c-1.65,0-2.15,1-2.15,1.71,0,2.82,5.43,1.13,5.43,5.16,0,2.16-1.71,3.45-3.83,3.45A4.19,4.19,0,0,1,85.34,37Z"/></svg>