<svg id="Capa_1" data-name="Capa 1" xmlns="http://www.w3.org/2000/svg" viewBox="0 0 132.55 38.01"><defs><style>.cls-1{fill:#fff;}</style></defs><title>Logo banco popular valores header</title><path class="cls-1" d="M94.6,16.56c-.93,0-1-.37-1-.69a1.41,1.41,0,0,1,.13-.48L99,3.71l-4.4.88-5,11a2.56,2.56,0,0,0-.13.73,2,2,0,0,0,1.21,1.76,4.47,4.47,0,0,0,2.06.49h2.14l1-2Z"/><path class="cls-1" d="M87.47,7.7l-3.42,7.51-.07.12a2.85,2.85,0,0,1-1.49,1,3.34,3.34,0,0,1-1.12.23h-6c-.92,0-1-.38-1-.71a1.14,1.14,0,0,1,.12-.49L78,7.67l-4,0-3.59,7.88a2.07,2.07,0,0,0-.13.72,2,2,0,0,0,1.21,1.75,4.33,4.33,0,0,0,2.06.51h9.52a5.71,5.71,0,0,0,2.17-.35,4.07,4.07,0,0,0,2.12-1.43.66.66,0,0,0,.09-.15l4.07-9Z"/><path class="cls-1" d="M115.47,8.18a4.55,4.55,0,0,0-2.08-.48H100.48l-.91,2h11.94a1.46,1.46,0,0,1,.78.19.55.55,0,0,1,.32.52,1.23,1.23,0,0,1-.11.46l-.21.46H101.63c-1.87,0-3.11.65-3.69,1.92l-1.37,3a1.28,1.28,0,0,0-.1.56c0,1.14.92,1.72,2.71,1.72h10.45a5.63,5.63,0,0,0,2-.34,4.21,4.21,0,0,0,2.12-1.43c0-.07.12-.19.18-.32l2.64-5.8a2.47,2.47,0,0,0,.12-.73A1.94,1.94,0,0,0,115.47,8.18Zm-4.74,6.53a3.54,3.54,0,0,1-.21.4,2.89,2.89,0,0,1-1.49,1,3.49,3.49,0,0,1-1.26.24h-6.12a1,1,0,0,1-.75-.2.38.38,0,0,1-.05-.33l.79-1.72a1.19,1.19,0,0,1,.74-.73,4.52,4.52,0,0,1,1.14-.08h7.86Z"/><path class="cls-1" d="M50.15,8.15a4.31,4.31,0,0,0-2-.47H38.6A5.69,5.69,0,0,0,36.43,8,4.21,4.21,0,0,0,34.3,9.46a3.61,3.61,0,0,0-.22.39L31.5,15.56a1.63,1.63,0,0,0-.14.74,2,2,0,0,0,1.21,1.75,4.3,4.3,0,0,0,2,.51h9.66a5.55,5.55,0,0,0,2-.34,4.2,4.2,0,0,0,2.13-1.43,4.86,4.86,0,0,0,.28-.53l2.56-5.65a2.17,2.17,0,0,0,.13-.73A1.91,1.91,0,0,0,50.15,8.15Zm-3.06,2.71L45.2,15c-.06.12-.14.25-.18.32a3,3,0,0,1-1.48,1,3.71,3.71,0,0,1-1.2.23H36.49c-.91,0-1-.38-1-.71a1.2,1.2,0,0,1,.11-.48l1.83-4c.06-.12.18-.36.24-.45a2.85,2.85,0,0,1,1.49-1,3.86,3.86,0,0,1,1.51-.24h5.6c.87,0,1,.35,1,.67A1.24,1.24,0,0,1,47.09,10.86Z"/><path class="cls-1" d="M70.16,8.16a4.67,4.67,0,0,0-2.11-.46H58.43A5.61,5.61,0,0,0,56.35,8a4.15,4.15,0,0,0-2.12,1.43c-.1.14-.33.61-.39.73h0L47.74,23.58h4l2.3-5H64.15A5.47,5.47,0,0,0,68.34,17l2.93-6.38a2.31,2.31,0,0,0,.12-.72A1.92,1.92,0,0,0,70.16,8.16Zm-3.08,2.7-2.19,4.79a1.72,1.72,0,0,1-1.63.72H55.13l2.25-4.94h0a5,5,0,0,1,.26-.52,3,3,0,0,1,1.49-1,3.7,3.7,0,0,1,1.36-.23h5.68c.9,0,1,.36,1,.69A1.21,1.21,0,0,1,67.08,10.86Z"/><path class="cls-1" d="M131.33,8.16a4.72,4.72,0,0,0-2.1-.46h-6.48a5.52,5.52,0,0,0-2.07.34,4.1,4.1,0,0,0-2.13,1.43,5.94,5.94,0,0,0-.36.67l-3.85,8.42h4.08l3.32-7.31a2.85,2.85,0,0,1,.19-.36,3,3,0,0,1,1.49-1,3.08,3.08,0,0,1,.94-.21h3c.95,0,1.07.37,1.07.7a1.2,1.2,0,0,1-.11.48l-.63,1.4h4l.74-1.64a2.11,2.11,0,0,0,.13-.72A1.93,1.93,0,0,0,131.33,8.16Z"/><path class="cls-1" d="M34.84,2.7c-.68-.91-2.19-1.36-4.51-1.36H22.8a5.39,5.39,0,0,0-1.95.28,3.79,3.79,0,0,0-1.91,1.19v0L11,18.39h6.39l3.25-6.33h3.5a13.35,13.35,0,0,0,6.52-1.45,9.5,9.5,0,0,0,3.95-4C35.45,4.9,35.53,3.61,34.84,2.7ZM29,6.73a4.06,4.06,0,0,1-1.8,1.69,8,8,0,0,1-3.59.66h-2l1.83-3.55h0a2.57,2.57,0,0,1,.2-.35,2,2,0,0,1,1.08-.68,3.16,3.16,0,0,1,1.13-.17h.46c1.5,0,2.4.23,2.7.7A1.59,1.59,0,0,1,29,6.73Z"/><polygon class="cls-1" points="26.24 25.73 28.12 25.73 31.65 35.48 31.68 35.48 35.34 25.73 37.11 25.73 32.39 37.71 30.87 37.71 26.24 25.73"/><path class="cls-1" d="M41,25.73h1.47l5.13,12H45.75l-1.21-3h-5.7l-1.19,3H35.76ZM44,33.33l-2.23-5.5h0l-2.27,5.5Z"/><polygon class="cls-1" points="48.71 25.68 50.33 25.68 50.33 36.29 55.83 36.29 55.83 37.71 48.71 37.71 48.71 25.68"/><path class="cls-1" d="M56.25,31.72a6.25,6.25,0,1,1,12.5,0,6.25,6.25,0,1,1-12.5,0m10.77,0a4.53,4.53,0,1,0-9,0,4.53,4.53,0,1,0,9,0"/><path class="cls-1" d="M70.6,25.73h4.21c3.06,0,3.84,1.84,3.84,3.35a3.21,3.21,0,0,1-3,3.16l3.41,5.47h-2l-3-5.28H72.22v5.28H70.6ZM72.22,31h2.13c1.29,0,2.58-.31,2.58-1.93s-1.29-1.93-2.58-1.93H72.22Z"/><polygon class="cls-1" points="80.44 25.73 88.17 25.73 88.17 27.25 82.07 27.25 82.07 30.82 87.76 30.82 87.76 32.34 82.07 32.34 82.07 36.19 88.48 36.19 88.48 37.71 80.44 37.71 80.44 25.73"/><path class="cls-1" d="M90.65,35.21a3,3,0,0,0,2.54,1.28,2.21,2.21,0,0,0,2.38-2c0-2.76-5.9-1-5.9-5.73,0-1.4,1.18-3.35,4.06-3.35a4.11,4.11,0,0,1,3.45,1.38L95.86,28A2.49,2.49,0,0,0,93.73,27c-1.8,0-2.34,1.08-2.34,1.82,0,3,5.91,1.22,5.91,5.54,0,2.32-1.86,3.7-4.16,3.7a4.6,4.6,0,0,1-3.83-1.65Z"/><path class="cls-1" d="M21.92,17.2c1.76,3.85,2.09,7.12.53,8.52-2.52,2.26-9-1.26-14.53-7.88S0,4,2.52,1.76c2-1.81,6.6.1,11.17,4.33l0-.8C8.61.73,3.53-1.25,1.21.83-1.72,3.46.87,11.55,7,18.91S20.45,30.1,23.38,27.47c1.92-1.72,1.46-5.78-.78-10.43Z"/></svg>