<svg xmlns="http://www.w3.org/2000/svg" xmlns:xlink="http://www.w3.org/1999/xlink" viewBox="0 0 255.52 186.38">
  <defs>
    <style>
      .cls-1 {
        fill: none;
      }

      .cls-2 {
        clip-path: url(#clip-path);
      }

      .cls-3 {
        fill: url(#linear-gradient);
      }

      .cls-4 {
        clip-path: url(#clip-path-2);
      }

      .cls-5 {
        fill: url(#linear-gradient-2);
      }

      .cls-6 {
        clip-path: url(#clip-path-3);
      }

      .cls-7 {
        fill: url(#linear-gradient-3);
      }

      .cls-8 {
        fill: #fff;
      }
    </style>
    <clipPath id="clip-path">
      <path class="cls-1" d="M200.62,100.6a17.5,17.5,0,1,0,11.23-4.08,17.5,17.5,0,0,0-11.23,4.08"/>
    </clipPath>
    <linearGradient id="linear-gradient" x1="695.33" y1="4548.47" x2="696.33" y2="4548.47" gradientTransform="matrix(35, 0, 0, -35, -24142.73, 159315.29)" gradientUnits="userSpaceOnUse">
      <stop offset="0" stop-color="#9c28b6"/>
      <stop offset="0.15" stop-color="#9c28b6"/>
      <stop offset="0.26" stop-color="#9629ae"/>
      <stop offset="0.73" stop-color="#7f2e90"/>
      <stop offset="1" stop-color="#763085"/>
    </linearGradient>
    <clipPath id="clip-path-2">
      <path class="cls-1" d="M241.41,156.31a8,8,0,1,0,5.13-1.87,8,8,0,0,0-5.13,1.87"/>
    </clipPath>
    <linearGradient id="linear-gradient-2" x1="637.46" y1="4593.82" x2="638.46" y2="4593.82" gradientTransform="matrix(16, 0, 0, -16, -9961.03, 73665.86)" xlink:href="#linear-gradient"/>
    <clipPath id="clip-path-3">
      <path class="cls-1" d="M0,93.19A93.19,93.19,0,1,0,93.19,0,93.19,93.19,0,0,0,0,93.19"/>
    </clipPath>
    <linearGradient id="linear-gradient-3" x1="734.91" y1="4517.48" x2="735.91" y2="4517.48" gradientTransform="matrix(186.38, 0, 0, -186.38, -136972.21, 842059.23)" xlink:href="#linear-gradient"/>
  </defs>
  <title>bubbles-seguros</title>
  <g id="Layer_2" data-name="Layer 2">
    <g id="Layer_1-2" data-name="Layer 1">
      <g class="cls-2">
        <rect class="cls-3" x="192.24" y="96.51" width="39.24" height="37.12"/>
      </g>
      <g class="cls-4">
        <rect class="cls-5" x="237.58" y="154.45" width="17.94" height="16.97"/>
      </g>
      <g class="cls-6">
        <rect class="cls-7" width="186.38" height="186.38"/>
      </g>
      <g>
        <path class="cls-8" d="M126.47,89.59c-1.09,0-1.23-.44-1.23-.81a1.55,1.55,0,0,1,.15-.57l6.26-13.77-5.2,1-5.9,13a2.83,2.83,0,0,0-.15.86,2.31,2.31,0,0,0,1.42,2.07,5.21,5.21,0,0,0,2.43.58h2.53l1.15-2.35Z"/>
        <path class="cls-8" d="M118.07,79.14,114,88l-.09.14a3.44,3.44,0,0,1-1.75,1.18,4.16,4.16,0,0,1-1.32.27h-7c-1.08,0-1.22-.45-1.22-.84a1.35,1.35,0,0,1,.14-.57l4.12-9.07-4.71,0-4.23,9.29a2.51,2.51,0,0,0-.15.85,2.31,2.31,0,0,0,1.42,2.06,5,5,0,0,0,2.43.6h11.23a6.75,6.75,0,0,0,2.56-.41,4.9,4.9,0,0,0,2.5-1.69l.1-.18,4.79-10.56Z"/>
        <path class="cls-8" d="M151.08,79.72a5.23,5.23,0,0,0-2.45-.58H133.4l-1.07,2.35h14.09a1.74,1.74,0,0,1,.91.22.66.66,0,0,1,.38.62,1.36,1.36,0,0,1-.14.54l-.24.54H134.77c-2.21,0-3.67.76-4.35,2.26l-1.62,3.58a1.57,1.57,0,0,0-.12.66c0,1.35,1.08,2,3.2,2h12.31a6.34,6.34,0,0,0,2.33-.4,5,5,0,0,0,2.5-1.68c0-.08.13-.22.21-.38l3.11-6.83a2.77,2.77,0,0,0,.15-.86,2.28,2.28,0,0,0-1.42-2.07m-5.58,7.7a4.92,4.92,0,0,1-.25.47,3.41,3.41,0,0,1-1.76,1.18,4.2,4.2,0,0,1-1.48.28h-7.21a1.2,1.2,0,0,1-.88-.23.44.44,0,0,1-.06-.39l.93-2a1.38,1.38,0,0,1,.87-.86,5.2,5.2,0,0,1,1.35-.1h9.26Z"/>
        <path class="cls-8" d="M74.08,79.67a5.19,5.19,0,0,0-2.4-.55H60.46a6.69,6.69,0,0,0-2.55.41,4.85,4.85,0,0,0-2.51,1.69,3.75,3.75,0,0,0-.26.47l-3,6.73a1.91,1.91,0,0,0-.17.87,2.31,2.31,0,0,0,1.43,2.06,5,5,0,0,0,2.43.6H67.16a6.36,6.36,0,0,0,2.33-.4A4.93,4.93,0,0,0,72,89.86a6.94,6.94,0,0,0,.34-.62l3-6.66a2.55,2.55,0,0,0,.16-.86,2.27,2.27,0,0,0-1.43-2m-3.61,3.21-2.23,4.89c-.07.14-.16.3-.21.38a3.44,3.44,0,0,1-1.75,1.18,4.39,4.39,0,0,1-1.41.27H58c-1.08,0-1.23-.45-1.23-.84a1.33,1.33,0,0,1,.14-.57L59,83.48c.07-.14.22-.43.28-.53a3.41,3.41,0,0,1,1.76-1.18,4.61,4.61,0,0,1,1.78-.29h6.61c1,0,1.15.42,1.15.79a1.52,1.52,0,0,1-.15.61"/>
        <path class="cls-8" d="M97.67,79.69a5.5,5.5,0,0,0-2.49-.55H83.84a6.72,6.72,0,0,0-2.44.4,4.88,4.88,0,0,0-2.5,1.69,9.22,9.22,0,0,0-.46.85h0L71.24,97.87h4.7l2.71-5.92H90.58a6.46,6.46,0,0,0,4.94-1.84L99,82.58a2.63,2.63,0,0,0,.15-.85,2.27,2.27,0,0,0-1.45-2M94,82.88l-2.58,5.64a2,2,0,0,1-1.93.84H80l2.65-5.82h0a5.24,5.24,0,0,1,.32-.6,3.43,3.43,0,0,1,1.76-1.19,4.46,4.46,0,0,1,1.59-.27H93c1.07,0,1.2.43,1.2.81a1.39,1.39,0,0,1-.13.59"/>
        <path class="cls-8" d="M169.77,79.69a5.46,5.46,0,0,0-2.47-.55h-7.64a6.67,6.67,0,0,0-2.44.4,4.84,4.84,0,0,0-2.5,1.69,7.61,7.61,0,0,0-.42.79l-4.54,9.92h4.8l3.91-8.61c.08-.16.17-.34.22-.43a3.49,3.49,0,0,1,1.76-1.18,4.06,4.06,0,0,1,1.12-.25h3.5c1.13,0,1.27.44,1.27.84a1.31,1.31,0,0,1-.13.57l-.75,1.65h4.73l.88-1.94a2.55,2.55,0,0,0,.15-.85,2.26,2.26,0,0,0-1.44-2"/>
        <path class="cls-8" d="M56,73.25q-1.21-1.61-5.31-1.6H41.84a6.55,6.55,0,0,0-2.3.34,4.32,4.32,0,0,0-2.24,1.4l0,0L27.89,91.74h7.53l3.84-7.46h4.13a15.72,15.72,0,0,0,7.67-1.71,11.19,11.19,0,0,0,4.67-4.76q1.53-3,.31-4.56M49.12,78A4.74,4.74,0,0,1,47,80a9.35,9.35,0,0,1-4.23.78H40.46l2.15-4.19h0a4,4,0,0,1,.23-.41,2.45,2.45,0,0,1,1.28-.8,3.81,3.81,0,0,1,1.33-.19H46c1.76,0,2.82.27,3.18.82a1.89,1.89,0,0,1-.07,2"/>
        <path class="cls-8" d="M41.08,90.57c2.09,4.55,2.48,8.42.64,10.07-3,2.67-10.68-1.49-17.19-9.32s-9.37-16.33-6.39-19c2.39-2.14,7.8.11,13.21,5.11l0-.95c-6-5.4-12-7.74-14.74-5.28-3.46,3.11-.4,12.69,6.84,21.39s15.92,13.23,19.38,10.12c2.27-2,1.73-6.83-.93-12.34Z"/>
        <path class="cls-8" d="M47.57,113a3.32,3.32,0,0,0,2.82,1.43A2.47,2.47,0,0,0,53,112.23c0-3.07-6.57-1.17-6.57-6.36,0-1.56,1.32-3.73,4.52-3.73a4.61,4.61,0,0,1,3.84,1.53L53.36,105A2.79,2.79,0,0,0,51,103.84c-2,0-2.6,1.2-2.6,2,0,3.37,6.57,1.35,6.57,6.16,0,2.58-2.07,4.12-4.63,4.12a5.11,5.11,0,0,1-4.25-1.84Z"/>
        <polygon class="cls-8" points="56.87 102.48 65.47 102.48 65.47 104.18 58.67 104.18 58.67 108.15 65 108.15 65 109.84 58.67 109.84 58.67 114.12 65.81 114.12 65.81 115.81 56.87 115.81 56.87 102.48"/>
        <path class="cls-8" d="M78.95,108.36v6.57a10.78,10.78,0,0,1-5,1.22,7,7,0,1,1-.19-14c2.45,0,3.93.66,5,1.73l-1.28,1.38a5.17,5.17,0,0,0-8.72,3.9,5.15,5.15,0,0,0,5.18,5.31,7,7,0,0,0,3.27-.7V110h-3v-1.69Z"/>
        <path class="cls-8" d="M83,102.48v8.17c0,1.66.83,3.81,3.35,3.81s3.35-2.15,3.35-3.81v-8.17h1.81v8.46a5.16,5.16,0,1,1-10.32,0v-8.46Z"/>
        <path class="cls-8" d="M94,102.48h4.69c3.41,0,4.27,2.05,4.27,3.73a3.57,3.57,0,0,1-3.28,3.52l3.79,6.08h-2.26l-3.39-5.87h-2v5.87H94Zm1.81,5.88h2.37c1.43,0,2.86-.34,2.86-2.15s-1.43-2.15-2.86-2.15H95.77Z"/>
        <path class="cls-8" d="M103.87,109.15a6.94,6.94,0,1,1,6.94,7,6.78,6.78,0,0,1-6.94-7m12,0a5,5,0,1,0-5,5.31,5,5,0,0,0,5-5.31"/>
        <path class="cls-8" d="M120,113a3.33,3.33,0,0,0,2.82,1.43,2.47,2.47,0,0,0,2.65-2.23c0-3.07-6.57-1.17-6.57-6.36,0-1.56,1.32-3.73,4.52-3.73a4.61,4.61,0,0,1,3.84,1.53L125.78,105a2.8,2.8,0,0,0-2.37-1.17c-2,0-2.61,1.2-2.61,2,0,3.37,6.57,1.35,6.57,6.16,0,2.58-2.07,4.12-4.63,4.12a5.11,5.11,0,0,1-4.25-1.84Z"/>
      </g>
    </g>
  </g>
</svg>
