<svg xmlns="http://www.w3.org/2000/svg" xmlns:xlink="http://www.w3.org/1999/xlink" viewBox="0 0 260 186.38">
  <defs>
    <style>
      .cls-1 {
        fill: none;
      }

      .cls-2 {
        clip-path: url(#clip-path);
      }

      .cls-3 {
        fill: url(#linear-gradient);
      }

      .cls-4 {
        clip-path: url(#clip-path-2);
      }

      .cls-5 {
        fill: url(#linear-gradient-2);
      }

      .cls-6 {
        clip-path: url(#clip-path-3);
      }

      .cls-7 {
        fill: url(#linear-gradient-3);
      }

      .cls-8 {
        fill: #fff;
      }
    </style>
    <clipPath id="clip-path">
      <path class="cls-1" d="M0,93.19a17.5,17.5,0,1,0,17.5-17.5A17.5,17.5,0,0,0,0,93.19"/>
    </clipPath>
    <linearGradient id="linear-gradient" x1="692.49" y1="4299.61" x2="693.49" y2="4299.61" gradientTransform="matrix(35, 0, 0, -35, -24237, 150579.67)" gradientUnits="userSpaceOnUse">
      <stop offset="0" stop-color="#f39e1c"/>
      <stop offset="0.15" stop-color="#f39e1c"/>
      <stop offset="0.67" stop-color="#fb8408"/>
      <stop offset="1" stop-color="#ff7900"/>
    </linearGradient>
    <clipPath id="clip-path-2">
      <path class="cls-1" d="M5,152.6a8,8,0,1,0,8-8,8,8,0,0,0-8,8"/>
    </clipPath>
    <linearGradient id="linear-gradient-2" x1="643.82" y1="4364.08" x2="644.82" y2="4364.08" gradientTransform="matrix(16, 0, 0, -16, -10296.06, 69977.84)" xlink:href="#linear-gradient"/>
    <clipPath id="clip-path-3">
      <path class="cls-1" d="M73.62,93.19A93.19,93.19,0,1,0,166.81,0,93.19,93.19,0,0,0,73.62,93.19"/>
    </clipPath>
    <linearGradient id="linear-gradient-3" x1="725.77" y1="4255.52" x2="726.77" y2="4255.52" gradientTransform="matrix(186.38, 0, 0, -186.38, -135195.9, 793235.87)" xlink:href="#linear-gradient"/>
  </defs>
  <title>bubbles-safi</title>
  <g id="Layer_2" data-name="Layer 2">
    <g id="Layer_1-2" data-name="Layer 1">
      <g class="cls-2">
        <rect class="cls-3" y="75.69" width="35" height="35"/>
      </g>
      <g class="cls-4">
        <rect class="cls-5" x="5" y="144.6" width="16" height="16"/>
      </g>
      <g class="cls-6">
        <rect class="cls-7" x="73.62" width="186.38" height="186.38"/>
      </g>
      <g>
        <path class="cls-8" d="M199.62,92.65c-1.12,0-1.27-.45-1.27-.84a1.58,1.58,0,0,1,.16-.59L205,77l-5.37,1.08-6.1,13.38a2.89,2.89,0,0,0-.16.89,2.39,2.39,0,0,0,1.47,2.14,5.37,5.37,0,0,0,2.51.6H200l1.19-2.43Z"/>
        <path class="cls-8" d="M190.95,81.86,186.78,91a.93.93,0,0,1-.09.15,3.52,3.52,0,0,1-1.81,1.22,4.18,4.18,0,0,1-1.36.27h-7.28c-1.11,0-1.26-.46-1.26-.87a1.38,1.38,0,0,1,.15-.59l4.25-9.37-4.87,0-4.36,9.6a2.59,2.59,0,0,0-.16.87,2.39,2.39,0,0,0,1.47,2.13,5.22,5.22,0,0,0,2.51.62h11.6a7,7,0,0,0,2.64-.42,5.06,5.06,0,0,0,2.59-1.74l.11-.18,5-10.91Z"/>
        <path class="cls-8" d="M225,82.45a5.41,5.41,0,0,0-2.53-.6H206.79l-1.11,2.43h14.55a1.8,1.8,0,0,1,.94.23.68.68,0,0,1,.4.64,1.35,1.35,0,0,1-.14.56l-.25.56h-13c-2.28,0-3.79.79-4.49,2.34L202,92.31a1.58,1.58,0,0,0-.12.68c0,1.39,1.11,2.1,3.3,2.1h12.72a6.65,6.65,0,0,0,2.41-.42,5.09,5.09,0,0,0,2.58-1.74,4.25,4.25,0,0,0,.22-.39l3.21-7.06a2.92,2.92,0,0,0,.16-.89A2.35,2.35,0,0,0,225,82.45m-5.77,8a5.25,5.25,0,0,1-.27.49,3.51,3.51,0,0,1-1.81,1.22,4.29,4.29,0,0,1-1.53.28h-7.45a1.24,1.24,0,0,1-.91-.24.46.46,0,0,1-.06-.4l1-2.1a1.44,1.44,0,0,1,.9-.89,5.48,5.48,0,0,1,1.4-.11h9.57Z"/>
        <path class="cls-8" d="M145.5,82.4a5.39,5.39,0,0,0-2.48-.57h-11.6a6.94,6.94,0,0,0-2.64.42A5,5,0,0,0,126.19,84a5.31,5.31,0,0,0-.27.48l-3.14,6.95a2,2,0,0,0-.17.9,2.39,2.39,0,0,0,1.47,2.13,5.19,5.19,0,0,0,2.51.62h11.77a6.58,6.58,0,0,0,2.41-.41,5.08,5.08,0,0,0,2.59-1.74,6.24,6.24,0,0,0,.35-.64l3.12-6.88a2.62,2.62,0,0,0,.16-.89,2.35,2.35,0,0,0-1.48-2.12m-3.73,3.31-2.31,5c-.07.15-.16.31-.21.39a3.56,3.56,0,0,1-1.81,1.22,4.44,4.44,0,0,1-1.46.28h-7.12c-1.12,0-1.27-.46-1.27-.86a1.37,1.37,0,0,1,.14-.58L130,86.33c.07-.15.23-.45.3-.55a3.52,3.52,0,0,1,1.82-1.22,4.75,4.75,0,0,1,1.84-.29h6.83c1.06,0,1.19.43,1.19.81a1.56,1.56,0,0,1-.16.63"/>
        <path class="cls-8" d="M169.87,82.43a5.7,5.7,0,0,0-2.58-.57H155.58a6.91,6.91,0,0,0-2.53.42A5,5,0,0,0,150.47,84a8.71,8.71,0,0,0-.47.88h0l-7.43,16.3h4.86l2.8-6.12h12.32a6.68,6.68,0,0,0,5.11-1.9l3.56-7.77a2.7,2.7,0,0,0,.15-.87,2.34,2.34,0,0,0-1.49-2.11m-3.75,3.29-2.67,5.83a2.11,2.11,0,0,1-2,.87h-9.89l2.74-6h0a5.44,5.44,0,0,1,.33-.62,3.55,3.55,0,0,1,1.81-1.22,4.6,4.6,0,0,1,1.65-.28H165c1.1,0,1.24.45,1.24.84a1.4,1.4,0,0,1-.13.61"/>
        <path class="cls-8" d="M244.36,82.42a5.68,5.68,0,0,0-2.55-.57h-7.9a6.83,6.83,0,0,0-2.52.42A5,5,0,0,0,228.8,84a8.4,8.4,0,0,0-.44.81l-4.68,10.25h5l4-8.89a4.25,4.25,0,0,1,.23-.44,3.61,3.61,0,0,1,1.82-1.22,4.17,4.17,0,0,1,1.15-.26h3.62c1.16,0,1.31.46,1.31.86a1.33,1.33,0,0,1-.14.58l-.77,1.7h4.89l.9-2a2.66,2.66,0,0,0,.15-.88,2.34,2.34,0,0,0-1.49-2.11"/>
        <path class="cls-8" d="M126.85,75.77q-1.26-1.66-5.49-1.66h-9.18a6.75,6.75,0,0,0-2.37.35,4.46,4.46,0,0,0-2.32,1.45l0,0L97.77,94.88h7.79l4-7.71h4.26a16.28,16.28,0,0,0,7.93-1.76,11.57,11.57,0,0,0,4.82-4.92q1.58-3.06.32-4.71m-7.14,4.9a4.9,4.9,0,0,1-2.2,2.06,9.64,9.64,0,0,1-4.37.8h-2.39L113,79.21h0c0-.07.18-.34.24-.43a2.55,2.55,0,0,1,1.32-.83,4,4,0,0,1,1.37-.2h.57c1.82,0,2.91.28,3.28.85a2,2,0,0,1-.07,2.07"/>
        <polygon class="cls-8" points="117.73 104.64 123.08 104.64 123.08 105.72 118.88 105.72 118.88 108.39 122.79 108.39 122.79 109.47 118.88 109.47 118.88 113.15 117.73 113.15 117.73 104.64"/>
        <path class="cls-8" d="M123.75,109.11a4.44,4.44,0,1,1,4.43,4.47,4.33,4.33,0,0,1-4.43-4.47m7.64,0a3.21,3.21,0,1,0-3.21,3.39,3.2,3.2,0,0,0,3.21-3.39"/>
        <polygon class="cls-8" points="133.93 104.64 135.44 104.64 140.12 111.63 140.15 111.63 140.15 104.64 141.3 104.64 141.3 113.15 139.84 113.15 135.1 106.15 135.08 106.15 135.08 113.15 133.93 113.15 133.93 104.64"/>
        <path class="cls-8" d="M143,104.64h3a4.11,4.11,0,0,1,4.47,4.25,4.3,4.3,0,0,1-4.66,4.25H143Zm1.15,7.42h1.45c1.95,0,3.61-1.07,3.61-3.17a3.05,3.05,0,0,0-3.33-3.17H144.1Z"/>
        <path class="cls-8" d="M151.17,109.11a4.43,4.43,0,1,1,4.43,4.47,4.32,4.32,0,0,1-4.43-4.47m7.64,0a3.21,3.21,0,1,0-3.21,3.39,3.2,3.2,0,0,0,3.21-3.39"/>
        <path class="cls-8" d="M161.6,111.58a2.12,2.12,0,0,0,1.8.91,1.57,1.57,0,0,0,1.69-1.42c0-2-4.19-.74-4.19-4.06a2.58,2.58,0,0,1,2.88-2.38,2.93,2.93,0,0,1,2.45,1l-.94.85a1.79,1.79,0,0,0-1.52-.75c-1.27,0-1.66.77-1.66,1.3,0,2.15,4.19.87,4.19,3.93a2.69,2.69,0,0,1-3,2.63,3.27,3.27,0,0,1-2.72-1.18Z"/>
        <path class="cls-8" d="M170.48,104.64h3a4.11,4.11,0,0,1,4.47,4.25,4.29,4.29,0,0,1-4.66,4.25h-2.77Zm1.15,7.42h1.45c1.95,0,3.61-1.07,3.61-3.17a3,3,0,0,0-3.33-3.17h-1.73Z"/>
        <polygon class="cls-8" points="179.23 104.64 184.71 104.64 184.71 105.72 180.38 105.72 180.38 108.25 184.41 108.25 184.41 109.33 180.38 109.33 180.38 112.06 184.93 112.06 184.93 113.15 179.23 113.15 179.23 104.64"/>
        <rect class="cls-8" x="189.08" y="104.64" width="1.15" height="8.51"/>
        <polygon class="cls-8" points="192.07 104.64 193.59 104.64 198.27 111.63 198.29 111.63 198.29 104.64 199.45 104.64 199.45 113.15 197.98 113.15 193.25 106.15 193.23 106.15 193.23 113.15 192.07 113.15 192.07 104.64"/>
        <polygon class="cls-8" points="200.12 104.64 201.46 104.64 203.96 111.56 203.98 111.56 206.57 104.64 207.84 104.64 204.48 113.15 203.4 113.15 200.12 104.64"/>
        <polygon class="cls-8" points="208.51 104.64 214 104.64 214 105.72 209.66 105.72 209.66 108.25 213.7 108.25 213.7 109.33 209.66 109.33 209.66 112.06 214.22 112.06 214.22 113.15 208.51 113.15 208.51 104.64"/>
        <path class="cls-8" d="M215.5,104.64h3c2.18,0,2.73,1.31,2.73,2.38a2.29,2.29,0,0,1-2.09,2.25l2.41,3.88h-1.44l-2.16-3.75h-1.28v3.75H215.5Zm1.16,3.75h1.51c.92,0,1.83-.22,1.83-1.37s-.91-1.37-1.83-1.37h-1.51Z"/>
        <path class="cls-8" d="M222.75,111.58a2.11,2.11,0,0,0,1.8.91,1.57,1.57,0,0,0,1.69-1.42c0-2-4.19-.74-4.19-4.06a2.58,2.58,0,0,1,2.88-2.38,2.94,2.94,0,0,1,2.45,1l-.94.85a1.79,1.79,0,0,0-1.52-.75c-1.27,0-1.66.77-1.66,1.3,0,2.15,4.2.87,4.2,3.93a2.69,2.69,0,0,1-3,2.63,3.27,3.27,0,0,1-2.72-1.18Z"/>
        <rect class="cls-8" x="228.83" y="104.64" width="1.15" height="8.51"/>
        <path class="cls-8" d="M231.29,109.43a4.43,4.43,0,1,1,4.43,4.47,4.33,4.33,0,0,1-4.43-4.47m7.64,0a3.21,3.21,0,1,0-3.2,3.39,3.2,3.2,0,0,0,3.2-3.39M236.18,103h1.54l-1.79,1.73h-1Z"/>
        <polygon class="cls-8" points="241.47 104.64 242.99 104.64 247.67 111.63 247.69 111.63 247.69 104.64 248.85 104.64 248.85 113.15 247.38 113.15 242.65 106.15 242.63 106.15 242.63 113.15 241.47 113.15 241.47 104.64"/>
        <path class="cls-8" d="M111.46,93.43c2.15,4.69,2.55,8.67.65,10.37-3.07,2.76-11-1.53-17.7-9.59s-9.65-16.82-6.58-19.58c2.46-2.2,8,.12,13.6,5.27l0-1c-6.16-5.56-12.36-8-15.18-5.43-3.57,3.2-.41,13.06,7,22s16.4,13.62,20,10.42c2.33-2.09,1.78-7-1-12.7Z"/>
      </g>
    </g>
  </g>
</svg>
