<svg xmlns="http://www.w3.org/2000/svg" xmlns:xlink="http://www.w3.org/1999/xlink" viewBox="0 0 293.81 186.38">
  <defs>
    <style>
      .cls-1 {
        fill: none;
      }

      .cls-2 {
        clip-path: url(#clip-path);
      }

      .cls-3 {
        fill: url(#linear-gradient);
      }

      .cls-4 {
        clip-path: url(#clip-path-2);
      }

      .cls-5 {
        fill: url(#linear-gradient-2);
      }

      .cls-6 {
        clip-path: url(#clip-path-3);
      }

      .cls-7 {
        fill: url(#linear-gradient-3);
      }

      .cls-8 {
        fill: #fff;
      }
    </style>
    <clipPath id="clip-path">
      <path class="cls-1" d="M33.81,67.19a17.5,17.5,0,1,0,17.5-17.5,17.5,17.5,0,0,0-17.5,17.5"/>
    </clipPath>
    <linearGradient id="linear-gradient" x1="726.88" y1="4902.86" x2="727.88" y2="4902.86" gradientTransform="matrix(35, 0, 0, -35, -25406.82, 171667.42)" gradientUnits="userSpaceOnUse">
      <stop offset="0" stop-color="#f39e1c"/>
      <stop offset="0.15" stop-color="#f39e1c"/>
      <stop offset="0.67" stop-color="#fb8408"/>
      <stop offset="1" stop-color="#ff7900"/>
    </linearGradient>
    <clipPath id="clip-path-2">
      <path class="cls-1" d="M0,149.36a8,8,0,1,0,8-8,8,8,0,0,0-8,8"/>
    </clipPath>
    <linearGradient id="linear-gradient-2" x1="678.19" y1="4938.37" x2="679.19" y2="4938.37" gradientTransform="matrix(16, 0, 0, -16, -10850.97, 79163.34)" xlink:href="#linear-gradient"/>
    <clipPath id="clip-path-3">
      <path class="cls-1" d="M107.43,93.19A93.19,93.19,0,1,0,200.62,0a93.19,93.19,0,0,0-93.19,93.19"/>
    </clipPath>
    <linearGradient id="linear-gradient-3" x1="760.18" y1="4878.58" x2="761.18" y2="4878.58" gradientTransform="matrix(186.38, 0, 0, -186.38, -141574.17, 909360.49)" xlink:href="#linear-gradient"/>
  </defs>
  <title>bubbles-valores</title>
  <g id="Layer_2" data-name="Layer 2">
    <g id="Layer_1-2" data-name="Layer 1">
      <g class="cls-2">
        <rect class="cls-3" x="33.81" y="49.69" width="35" height="35"/>
      </g>
      <g class="cls-4">
        <rect class="cls-5" y="141.37" width="16" height="16"/>
      </g>
      <g class="cls-6">
        <rect class="cls-7" x="107.43" width="186.38" height="186.38"/>
      </g>
      <g>
        <path class="cls-8" d="M235.66,90.16c-1.14,0-1.29-.46-1.29-.85a1.59,1.59,0,0,1,.16-.6l6.57-14.45-5.45,1.1L229.45,89a3,3,0,0,0-.15.9A2.43,2.43,0,0,0,230.79,92a5.47,5.47,0,0,0,2.55.61H236l1.21-2.47Z"/>
        <path class="cls-8" d="M226.84,79.2l-4.23,9.3-.09.15a3.59,3.59,0,0,1-1.84,1.24,4.33,4.33,0,0,1-1.39.28h-7.39c-1.14,0-1.28-.47-1.28-.88a1.41,1.41,0,0,1,.15-.6l4.32-9.52-4.95,0-4.44,9.75a2.63,2.63,0,0,0-.16.89A2.43,2.43,0,0,0,207,92a5.33,5.33,0,0,0,2.55.63h11.78a7.11,7.11,0,0,0,2.68-.43,5.13,5.13,0,0,0,2.63-1.77l.11-.19,5-11.08Z"/>
        <path class="cls-8" d="M261.48,79.8a5.49,5.49,0,0,0-2.57-.61h-16l-1.13,2.47h14.78a1.83,1.83,0,0,1,1,.23.69.69,0,0,1,.4.65,1.43,1.43,0,0,1-.14.57l-.25.57H244.37c-2.32,0-3.85.8-4.57,2.38l-1.7,3.76a1.64,1.64,0,0,0-.12.69c0,1.42,1.13,2.13,3.35,2.13h12.92a6.69,6.69,0,0,0,2.45-.42,5.2,5.2,0,0,0,2.63-1.77c.05-.08.14-.24.22-.4l3.26-7.17A2.89,2.89,0,0,0,263,82a2.39,2.39,0,0,0-1.49-2.17m-5.86,8.08a5.36,5.36,0,0,1-.27.49,3.58,3.58,0,0,1-1.84,1.24,4.34,4.34,0,0,1-1.56.29h-7.57a1.25,1.25,0,0,1-.93-.24s-.11-.14-.06-.41l1-2.13a1.47,1.47,0,0,1,.92-.9,5.61,5.61,0,0,1,1.42-.11h9.72Z"/>
        <path class="cls-8" d="M180.67,79.75a5.43,5.43,0,0,0-2.52-.58H166.37a7,7,0,0,0-2.68.43,5.11,5.11,0,0,0-2.63,1.77,4.27,4.27,0,0,0-.28.49l-3.2,7.06a2,2,0,0,0-.17.91A2.43,2.43,0,0,0,158.91,92a5.25,5.25,0,0,0,2.55.64h12a6.73,6.73,0,0,0,2.45-.42,5.17,5.17,0,0,0,2.63-1.77,6.88,6.88,0,0,0,.35-.65l3.16-7a2.69,2.69,0,0,0,.16-.91,2.38,2.38,0,0,0-1.5-2.15m-3.79,3.36-2.35,5.13a4.11,4.11,0,0,1-.22.39,3.61,3.61,0,0,1-1.84,1.24,4.57,4.57,0,0,1-1.48.28h-7.23c-1.13,0-1.28-.47-1.28-.88a1.41,1.41,0,0,1,.14-.59l2.26-4.94c.07-.15.23-.45.3-.56A3.57,3.57,0,0,1,167,81.94a4.9,4.9,0,0,1,1.87-.3h6.93c1.07,0,1.21.44,1.21.83a1.6,1.6,0,0,1-.16.64"/>
        <path class="cls-8" d="M205.43,79.77a5.77,5.77,0,0,0-2.61-.58h-11.9a7.07,7.07,0,0,0-2.57.42,5.13,5.13,0,0,0-2.62,1.78,9.93,9.93,0,0,0-.48.9h0l-7.54,16.56h4.94l2.84-6.21H198a6.79,6.79,0,0,0,5.19-1.93l3.62-7.9a2.78,2.78,0,0,0,.15-.89,2.38,2.38,0,0,0-1.52-2.15m-3.81,3.34L198.91,89a2.13,2.13,0,0,1-2,.89H186.83l2.78-6.11h0a6.11,6.11,0,0,1,.33-.64,3.63,3.63,0,0,1,1.84-1.24,4.68,4.68,0,0,1,1.67-.29h7c1.12,0,1.25.45,1.25.85a1.44,1.44,0,0,1-.13.62"/>
        <path class="cls-8" d="M281.1,79.77a5.74,5.74,0,0,0-2.59-.58h-8a7,7,0,0,0-2.56.42,5.09,5.09,0,0,0-2.63,1.78,8,8,0,0,0-.45.83l-4.76,10.41h5l4.11-9c.08-.17.18-.36.24-.45a3.67,3.67,0,0,1,1.84-1.24,4.27,4.27,0,0,1,1.17-.26h3.68c1.18,0,1.33.47,1.33.88a1.39,1.39,0,0,1-.14.6l-.78,1.73h5l.92-2a2.66,2.66,0,0,0,.16-.89,2.38,2.38,0,0,0-1.52-2.15"/>
        <path class="cls-8" d="M161.73,73q-1.28-1.69-5.58-1.69h-9.32a6.84,6.84,0,0,0-2.41.36,4.53,4.53,0,0,0-2.36,1.47l0,0-9.85,19.24h7.91l4-7.83h4.33a16.53,16.53,0,0,0,8.06-1.79,11.75,11.75,0,0,0,4.9-5c1.07-2.07,1.17-3.67.32-4.79m-7.25,5a5,5,0,0,1-2.24,2.09,9.81,9.81,0,0,1-4.43.81h-2.43l2.26-4.39h0a3.43,3.43,0,0,1,.24-.43,2.56,2.56,0,0,1,1.34-.84,4,4,0,0,1,1.39-.21h.58c1.85,0,3,.29,3.34.86a2,2,0,0,1-.07,2.1"/>
        <polygon class="cls-8" points="151.09 101.5 153.42 101.5 157.78 113.57 157.82 113.57 162.34 101.5 164.54 101.5 158.69 116.33 156.81 116.33 151.09 101.5"/>
        <path class="cls-8" d="M169.4,101.51h1.82l6.34,14.83h-2.34l-1.49-3.67h-7.05l-1.47,3.67h-2.34Zm3.6,9.4-2.76-6.81h0l-2.81,6.81Z"/>
        <polygon class="cls-8" points="178.89 101.44 180.89 101.44 180.89 114.58 187.7 114.58 187.7 116.33 178.89 116.33 178.89 101.44"/>
        <path class="cls-8" d="M188.22,108.92a7.73,7.73,0,1,1,7.73,7.79,7.55,7.55,0,0,1-7.73-7.79m13.32,0c0-3.25-2.2-5.91-5.59-5.91a5.91,5.91,0,1,0,5.59,5.91"/>
        <path class="cls-8" d="M206,101.5h5.21c3.79,0,4.76,2.28,4.76,4.14a4,4,0,0,1-3.65,3.92l4.21,6.77H214l-3.77-6.53H208v6.53h-2Zm2,6.53h2.64c1.59,0,3.19-.37,3.19-2.39s-1.6-2.39-3.19-2.39H208Z"/>
        <polygon class="cls-8" points="218.15 101.5 227.72 101.5 227.72 103.39 220.16 103.39 220.16 107.81 227.2 107.81 227.2 109.69 220.16 109.69 220.16 114.45 228.1 114.45 228.1 116.33 218.15 116.33 218.15 101.5"/>
        <path class="cls-8" d="M230.78,113.23a3.71,3.71,0,0,0,3.14,1.59c1.32,0,3-.83,3-2.47,0-3.41-7.31-1.3-7.31-7.08,0-1.73,1.47-4.15,5-4.15a5.13,5.13,0,0,1,4.27,1.7l-1.64,1.49a3.12,3.12,0,0,0-2.64-1.3c-2.22,0-2.89,1.34-2.89,2.26,0,3.75,7.31,1.51,7.31,6.85,0,2.87-2.31,4.59-5.15,4.59a5.68,5.68,0,0,1-4.74-2.05Z"/>
        <path class="cls-8" d="M145.74,90.95c2.18,4.77,2.59,8.81.67,10.54-3.12,2.8-11.17-1.56-18-9.74s-9.8-17.09-6.69-19.89c2.5-2.24,8.17.12,13.82,5.35l0-1c-6.26-5.65-12.55-8.09-15.42-5.52-3.62,3.26-.42,13.27,7.16,22.37s16.66,13.84,20.28,10.59c2.37-2.12,1.81-7.14-1-12.9Z"/>
      </g>
    </g>
  </g>
</svg>
