<svg xmlns="http://www.w3.org/2000/svg" xmlns:xlink="http://www.w3.org/1999/xlink" viewBox="0 0 242.3 225.15">
  <defs>
    <style>
      .cls-1 {
        fill: none;
      }

      .cls-2 {
        clip-path: url(#clip-path);
      }

      .cls-3 {
        fill: url(#linear-gradient);
      }

      .cls-4 {
        clip-path: url(#clip-path-2);
      }

      .cls-5 {
        fill: url(#linear-gradient-2);
      }

      .cls-6 {
        clip-path: url(#clip-path-3);
      }

      .cls-7 {
        fill: url(#linear-gradient-3);
      }

      .cls-8 {
        fill: #fff;
      }
    </style>
    <clipPath id="clip-path">
      <path class="cls-1" d="M0,157.74a17.5,17.5,0,1,0,17.5-17.5A17.5,17.5,0,0,0,0,157.74"/>
    </clipPath>
    <linearGradient id="linear-gradient" x1="700.93" y1="5586.2" x2="701.93" y2="5586.2" gradientTransform="matrix(35, 0, 0, -35, -24532.47, 195674.76)" gradientUnits="userSpaceOnUse">
      <stop offset="0" stop-color="#f39e1c"/>
      <stop offset="0.15" stop-color="#f39e1c"/>
      <stop offset="0.67" stop-color="#fb8408"/>
      <stop offset="1" stop-color="#ff7900"/>
    </linearGradient>
    <clipPath id="clip-path-2">
      <path class="cls-1" d="M5,217.14a8,8,0,1,0,8-8,8,8,0,0,0-8,8"/>
    </clipPath>
    <linearGradient id="linear-gradient-2" x1="649.41" y1="5597" x2="650.41" y2="5597" gradientTransform="matrix(16, 0, 0, -16, -10385.62, 89769.12)" xlink:href="#linear-gradient"/>
    <clipPath id="clip-path-3">
      <path class="cls-1" d="M55.92,93.19A93.19,93.19,0,1,0,149.11,0,93.19,93.19,0,0,0,55.92,93.19"/>
    </clipPath>
    <linearGradient id="linear-gradient-3" x1="736.16" y1="5578.82" x2="737.16" y2="5578.82" gradientTransform="matrix(186.38, 0, 0, -186.38, -137149.62, 1039870.76)" xlink:href="#linear-gradient"/>
  </defs>
  <title>bubbles-populares</title>
  <g id="Layer_2" data-name="Layer 2">
    <g id="Layer_1-2" data-name="Layer 1">
      <g class="cls-2">
        <rect class="cls-3" y="140.24" width="35" height="35"/>
      </g>
      <g class="cls-4">
        <rect class="cls-5" x="5" y="209.15" width="16" height="16"/>
      </g>
      <g class="cls-6">
        <rect class="cls-7" x="55.92" width="186.38" height="186.38"/>
      </g>
      <g>
        <path class="cls-8" d="M121,111.84a6.61,6.61,0,0,1-1.94,4.5c-4.7,4.21-16.29-1.61-26.76-13.11l.61-1.19H97a15.64,15.64,0,0,0,7.62-1.7,11.16,11.16,0,0,0,4.64-4.73q1.51-2.94.3-4.54t-5.28-1.59H95.49a6.43,6.43,0,0,0-2.29.34A4.31,4.31,0,0,0,91,91.2l0,0-3.27,6.39c-9.33-12.35-13.14-25-8.47-29.21,3.38-3,10.33-.86,17.86,4.87l.48-1.15c-8.72-6.71-16.93-9.22-21-5.6-5.55,5-1.19,19.77,9.69,33.83l-4.64,9.08h7.49l1.83-3.55c11.61,12.6,24.57,18.8,30,13.94,1.93-1.73,2.65-4.64,2.33-8.29a5.43,5.43,0,0,1-2.25.3M96.26,94.39h0c0-.07.17-.33.23-.41a2.45,2.45,0,0,1,1.27-.79A3.82,3.82,0,0,1,99.09,93h.55q2.63,0,3.16.82a1.88,1.88,0,0,1-.07,2,4.7,4.7,0,0,1-2.12,2,9.29,9.29,0,0,1-4.2.77H94.12Z"/>
        <path class="cls-8" d="M178.36,106.5a1.58,1.58,0,0,1,.15-.57l6.22-13.68-5.17,1-5.86,12.87a2.8,2.8,0,0,0-.15.86,2.3,2.3,0,0,0,1.41,2.06,5.16,5.16,0,0,0,2.41.57h2.51l1.14-2.34h-1.46c-1.08,0-1.22-.43-1.22-.81"/>
        <path class="cls-8" d="M171.24,96.93l-4,8.8-.09.14a3.38,3.38,0,0,1-1.74,1.17,4.09,4.09,0,0,1-1.31.27h-7c-1.07,0-1.22-.44-1.22-.84a1.37,1.37,0,0,1,.14-.57l4.09-9-4.68,0-4.2,9.23a2.54,2.54,0,0,0-.15.84,2.29,2.29,0,0,0,1.41,2.05,5,5,0,0,0,2.42.6h11.16a6.76,6.76,0,0,0,2.54-.41,4.88,4.88,0,0,0,2.49-1.68l.1-.17L176,96.9Z"/>
        <path class="cls-8" d="M205.45,99.55A2.27,2.27,0,0,0,204,97.5a5.25,5.25,0,0,0-2.44-.57H186.47l-1.07,2.34h14a1.72,1.72,0,0,1,.9.22.65.65,0,0,1,.38.61,1.35,1.35,0,0,1-.13.54l-.24.54H187.83c-2.19,0-3.65.75-4.33,2.25L181.9,107a1.6,1.6,0,0,0-.11.66c0,1.34,1.07,2,3.17,2h12.24a6.31,6.31,0,0,0,2.32-.4,4.9,4.9,0,0,0,2.49-1.67c.05-.08.13-.22.21-.38l3.09-6.79a2.79,2.79,0,0,0,.15-.86m-7,5.59c-.08.15-.19.38-.25.47a3.41,3.41,0,0,1-1.75,1.17,4.16,4.16,0,0,1-1.48.27h-7.16a1.19,1.19,0,0,1-.88-.23s-.1-.13-.06-.39l.92-2a1.39,1.39,0,0,1,.87-.85,5.36,5.36,0,0,1,1.34-.1h9.2Z"/>
        <path class="cls-8" d="M125.14,96.9H114a6.68,6.68,0,0,0-2.54.41A4.81,4.81,0,0,0,109,99a4,4,0,0,0-.26.46l-3,6.68a1.93,1.93,0,0,0-.16.86,2.3,2.3,0,0,0,1.41,2.05,5,5,0,0,0,2.42.6h11.32a6.3,6.3,0,0,0,2.32-.4,4.87,4.87,0,0,0,2.49-1.67,5.91,5.91,0,0,0,.34-.62l3-6.62a2.63,2.63,0,0,0,.15-.86,2.26,2.26,0,0,0-1.42-2,5.17,5.17,0,0,0-2.39-.55m-1.2,3.73-2.22,4.85c-.07.14-.16.3-.2.37a3.44,3.44,0,0,1-1.74,1.18,4.37,4.37,0,0,1-1.4.27h-6.85c-1.08,0-1.22-.45-1.22-.83a1.32,1.32,0,0,1,.14-.56l2.14-4.68c.07-.14.22-.43.28-.53a3.4,3.4,0,0,1,1.75-1.17,4.66,4.66,0,0,1,1.77-.29h6.56c1,0,1.15.42,1.15.79a1.54,1.54,0,0,1-.15.61"/>
        <path class="cls-8" d="M152.4,99.51a2.25,2.25,0,0,0-1.44-2,5.49,5.49,0,0,0-2.48-.55H137.22a6.67,6.67,0,0,0-2.43.4A4.85,4.85,0,0,0,132.3,99a9.15,9.15,0,0,0-.45.85h0l-7.14,15.68h4.68l2.69-5.88h11.85a6.43,6.43,0,0,0,4.91-1.83l3.42-7.47a2.48,2.48,0,0,0,.15-.84m-5.05,1.13-2.56,5.61a2,2,0,0,1-1.91.84h-9.52L136,101.3h0c0-.1.23-.48.32-.6a3.44,3.44,0,0,1,1.74-1.17,4.41,4.41,0,0,1,1.58-.28h6.65c1.06,0,1.19.43,1.19.81a1.32,1.32,0,0,1-.13.59"/>
        <path class="cls-8" d="M222.61,97.47a5.44,5.44,0,0,0-2.45-.55h-7.59a6.59,6.59,0,0,0-2.42.4A4.81,4.81,0,0,0,207.65,99a8.14,8.14,0,0,0-.42.78l-4.5,9.86h4.77l3.89-8.56c.07-.15.17-.34.22-.43a3.5,3.5,0,0,1,1.75-1.17,4,4,0,0,1,1.11-.25h3.48c1.11,0,1.26.44,1.26.83a1.32,1.32,0,0,1-.14.56l-.74,1.64H223l.87-1.93a2.47,2.47,0,0,0,.15-.84,2.25,2.25,0,0,0-1.44-2"/>
        <path class="cls-8" d="M144.6,85.25l4.08-9a3.42,3.42,0,0,1,1.74-1.17,3.9,3.9,0,0,1,1.13-.25h7.11c1.09,0,1.24.44,1.24.83a1.35,1.35,0,0,1-.13.56l-4.12,9h4.75L164.63,76a2.09,2.09,0,0,0,.16-.86,2.26,2.26,0,0,0-1.45-2,5.52,5.52,0,0,0-2.47-.55H149.09a6,6,0,0,0-2,.38,4.85,4.85,0,0,0-2.48,1.67l-4.86,10.67Z"/>
        <path class="cls-8" d="M137.37,75.08a.66.66,0,0,1,.38.62,1.45,1.45,0,0,1-.13.54l-.24.54H124.89c-2.19,0-3.65.75-4.33,2.25L119,82.58a1.55,1.55,0,0,0-.12.65c0,1.34,1.07,2,3.18,2h12.23a6.4,6.4,0,0,0,2.32-.4,4.84,4.84,0,0,0,2.49-1.68c.05-.08.14-.22.22-.37L142.36,76a2.83,2.83,0,0,0,.14-.86,2.26,2.26,0,0,0-1.41-2.05,5.2,5.2,0,0,0-2.43-.57H123.54l-1.07,2.34h14a1.78,1.78,0,0,1,.91.21m-1.81,5.65a5,5,0,0,1-.26.48,3.4,3.4,0,0,1-1.75,1.17,4.28,4.28,0,0,1-1.45.28h-7.19a1.17,1.17,0,0,1-.88-.24s-.1-.12-.05-.38l.91-2a1.43,1.43,0,0,1,.87-.85,5.43,5.43,0,0,1,1.34-.1h9.2Z"/>
        <path class="cls-8" d="M185.67,82.59a2.3,2.3,0,0,0,1.41,2.05,5,5,0,0,0,2.42.6h11.32a6.32,6.32,0,0,0,2.32-.4,4.85,4.85,0,0,0,2.49-1.68c.07-.11.23-.4.33-.61l3-6.61a2.72,2.72,0,0,0,.15-.86,2.26,2.26,0,0,0-1.41-2,5.21,5.21,0,0,0-2.39-.55H194.15a6.72,6.72,0,0,0-2.54.4,4.87,4.87,0,0,0-2.49,1.68,4.73,4.73,0,0,0-.26.46l-3,6.69a2.06,2.06,0,0,0-.16.86m4.94-1.08,2.13-4.65a5.92,5.92,0,0,1,.3-.56,3.4,3.4,0,0,1,1.74-1.18,4.7,4.7,0,0,1,1.78-.28h6.56c1,0,1.15.42,1.15.78a1.55,1.55,0,0,1-.16.61l-2.21,4.84c-.07.14-.16.31-.21.38a3.42,3.42,0,0,1-1.74,1.17,4.23,4.23,0,0,1-1.41.27h-6.84c-1.08,0-1.21-.45-1.21-.83a1.32,1.32,0,0,1,.13-.56"/>
        <path class="cls-8" d="M163.46,82.59a2.32,2.32,0,0,0,1.41,2.08,5.08,5.08,0,0,0,2.42.58H182.5l1.07-2.32H169.48c-1.1,0-1.24-.46-1.24-.86a1.54,1.54,0,0,1,.16-.56l2.26-5c.06-.1.11-.21.15-.25a3.44,3.44,0,0,1,1.74-1.17,4,4,0,0,1,1.14-.25h7.2c1.08,0,1.22.43,1.22.81a1.51,1.51,0,0,1-.16.58l0,.07h4.68l.17-.36a2.8,2.8,0,0,0,.15-.86,2.21,2.21,0,0,0-1.4-2,5.23,5.23,0,0,0-2.41-.55H171.34a6,6,0,0,0-2,.38,4.86,4.86,0,0,0-2.49,1.68l-.05.08-3.22,7.09a2.4,2.4,0,0,0-.15.83"/>
        <path class="cls-8" d="M97.52,76.15l-5,9.41h12.94l.47,0c.28,0,.63,0,1,0,1-.07,2.07-.2,2.8-.3h0a11.26,11.26,0,0,0,2.44-.56,12.5,12.5,0,0,0,3.45-2A9.12,9.12,0,0,0,118,79.88a3.62,3.62,0,0,0,.45-3.16c-.37-.84-1.34-1.44-2.91-1.78a11.28,11.28,0,0,0,3.33-1.33,8.17,8.17,0,0,0,3-3c.75-1.41.75-2.59,0-3.54s-2.29-1.43-4.63-1.43h-11a5.73,5.73,0,0,0-1.69.31,4.44,4.44,0,0,0-2.25,1.39l-2.55,4.79-1.05,2-.22.41-.91,1.66v0m10.07-6.39a1.84,1.84,0,0,1,.9-.59,2.12,2.12,0,0,1,.64-.14h3.21c1.49,0,2.43.22,2.8.65s.36,1,0,1.79a4.43,4.43,0,0,1-1.91,1.89,7.8,7.8,0,0,1-3.57.66h-4.3Zm-4,7.48a2,2,0,0,1,.74-.42,2.22,2.22,0,0,1,.74-.14h3.64c1.67,0,2.71.22,3.13.68a1.45,1.45,0,0,1,0,1.8,4.66,4.66,0,0,1-2,1.93,8.48,8.48,0,0,1-3.84.72H101.2Z"/>
      </g>
    </g>
  </g>
</svg>
