<svg xmlns="http://www.w3.org/2000/svg" xmlns:xlink="http://www.w3.org/1999/xlink" viewBox="0 0 255.52 186.38">
  <defs>
    <style>
      .cls-1 {
        fill: none;
      }

      .cls-2 {
        clip-path: url(#clip-path);
      }

      .cls-3 {
        fill: url(#linear-gradient);
      }

      .cls-4 {
        clip-path: url(#clip-path-2);
      }

      .cls-5 {
        fill: url(#linear-gradient-2);
      }

      .cls-6 {
        clip-path: url(#clip-path-3);
      }

      .cls-7 {
        fill: url(#linear-gradient-3);
      }

      .cls-8 {
        fill: #fff;
      }
    </style>
    <clipPath id="clip-path">
      <path class="cls-1" d="M200.62,67.6a17.5,17.5,0,1,0,11.23-4.08,17.5,17.5,0,0,0-11.23,4.08"/>
    </clipPath>
    <linearGradient id="linear-gradient" x1="747.15" y1="5204.75" x2="748.15" y2="5204.75" gradientTransform="matrix(35, 0, 0, -35, -25956.59, 182252.68)" gradientUnits="userSpaceOnUse">
      <stop offset="0" stop-color="#9c28b6"/>
      <stop offset="0.15" stop-color="#9c28b6"/>
      <stop offset="0.26" stop-color="#9629ae"/>
      <stop offset="0.73" stop-color="#7f2e90"/>
      <stop offset="1" stop-color="#763085"/>
    </linearGradient>
    <clipPath id="clip-path-2">
      <path class="cls-1" d="M241.41,123.31a8,8,0,1,0,5.13-1.87,8,8,0,0,0-5.13,1.87"/>
    </clipPath>
    <linearGradient id="linear-gradient-2" x1="687.47" y1="5226.73" x2="688.47" y2="5226.73" gradientTransform="matrix(16, 0, 0, -16, -10761.27, 83759.54)" xlink:href="#linear-gradient"/>
    <clipPath id="clip-path-3">
      <path class="cls-1" d="M0,93.19A93.19,93.19,0,1,0,93.19,0,93.19,93.19,0,0,0,0,93.19"/>
    </clipPath>
    <linearGradient id="linear-gradient-3" x1="787.97" y1="5189.75" x2="788.97" y2="5189.75" gradientTransform="matrix(186.38, 0, 0, -186.38, -146861.75, 967356.95)" xlink:href="#linear-gradient"/>
  </defs>
  <title>bubbles-pensiones</title>
  <g id="Layer_2" data-name="Layer 2">
    <g id="Layer_1-2" data-name="Layer 1">
      <g class="cls-2">
        <rect class="cls-3" x="192.24" y="63.51" width="39.24" height="37.12"/>
      </g>
      <g class="cls-4">
        <rect class="cls-5" x="237.58" y="121.45" width="17.94" height="16.97"/>
      </g>
      <g class="cls-6">
        <rect class="cls-7" width="186.38" height="186.38"/>
      </g>
      <g>
        <path class="cls-8" d="M127.16,90.38c-1.1,0-1.25-.44-1.25-.82a1.55,1.55,0,0,1,.16-.58l6.36-14-5.28,1.07-6,13.16a2.88,2.88,0,0,0-.15.88,2.35,2.35,0,0,0,1.45,2.1,5.29,5.29,0,0,0,2.47.59h2.57l1.17-2.39Z"/>
        <path class="cls-8" d="M118.63,79.76l-4.1,9a1,1,0,0,1-.09.14,3.45,3.45,0,0,1-1.78,1.2,4.18,4.18,0,0,1-1.34.27h-7.16c-1.1,0-1.24-.46-1.24-.85a1.39,1.39,0,0,1,.14-.58l4.18-9.21-4.79,0L98.18,89.2a2.55,2.55,0,0,0-.15.86,2.35,2.35,0,0,0,1.44,2.1,5.14,5.14,0,0,0,2.47.61h11.4a6.85,6.85,0,0,0,2.6-.42,5,5,0,0,0,2.54-1.71l.1-.18,4.87-10.73Z"/>
        <path class="cls-8" d="M152.16,80.35a5.32,5.32,0,0,0-2.49-.59H134.21l-1.09,2.39h14.31a1.76,1.76,0,0,1,.92.23.67.67,0,0,1,.39.63,1.36,1.36,0,0,1-.14.55l-.24.55H135.59c-2.24,0-3.73.77-4.42,2.3L129.53,90a1.57,1.57,0,0,0-.12.67c0,1.37,1.09,2.06,3.25,2.06h12.51a6.52,6.52,0,0,0,2.37-.41,5,5,0,0,0,2.54-1.71c.05-.08.14-.23.21-.38l3.16-6.94a2.87,2.87,0,0,0,.15-.88,2.32,2.32,0,0,0-1.45-2.1m-5.67,7.82c-.08.15-.2.39-.26.48a3.46,3.46,0,0,1-1.78,1.2,4.23,4.23,0,0,1-1.51.28h-7.32a1.23,1.23,0,0,1-.9-.24.45.45,0,0,1-.06-.4l.94-2.06a1.41,1.41,0,0,1,.89-.87,5.29,5.29,0,0,1,1.37-.11h9.41Z"/>
        <path class="cls-8" d="M73.94,80.3a5.28,5.28,0,0,0-2.44-.56H60.1a6.79,6.79,0,0,0-2.59.42A4.93,4.93,0,0,0,55,81.87a4.66,4.66,0,0,0-.27.47L51.6,89.18a1.93,1.93,0,0,0-.17.88,2.35,2.35,0,0,0,1.45,2.1,5.08,5.08,0,0,0,2.47.61H66.91a6.49,6.49,0,0,0,2.37-.41,5,5,0,0,0,2.54-1.71c.08-.12.23-.41.34-.63l3.06-6.77a2.6,2.6,0,0,0,.16-.88,2.31,2.31,0,0,0-1.45-2.08m-3.67,3.26-2.27,5c-.07.15-.16.3-.21.38A3.52,3.52,0,0,1,66,90.1a4.48,4.48,0,0,1-1.44.27h-7c-1.1,0-1.24-.46-1.24-.85a1.35,1.35,0,0,1,.14-.57l2.19-4.79c.07-.14.22-.44.29-.54a3.47,3.47,0,0,1,1.78-1.2,4.74,4.74,0,0,1,1.81-.29h6.71c1,0,1.17.43,1.17.8a1.57,1.57,0,0,1-.16.62"/>
        <path class="cls-8" d="M97.9,80.32a5.59,5.59,0,0,0-2.53-.56H83.85a6.86,6.86,0,0,0-2.48.41,5,5,0,0,0-2.54,1.72,9.16,9.16,0,0,0-.47.87h0l-7.3,16h4.78l2.75-6H90.7a6.58,6.58,0,0,0,5-1.87l3.5-7.64a2.65,2.65,0,0,0,.15-.86,2.3,2.3,0,0,0-1.47-2.08m-3.69,3.23-2.62,5.73a2.07,2.07,0,0,1-2,.86H79.9l2.7-5.92h0a5.85,5.85,0,0,1,.32-.61,3.49,3.49,0,0,1,1.78-1.2,4.53,4.53,0,0,1,1.62-.28h6.8c1.09,0,1.21.44,1.21.83a1.39,1.39,0,0,1-.13.6"/>
        <path class="cls-8" d="M171.15,80.32a5.56,5.56,0,0,0-2.51-.56h-7.76a6.76,6.76,0,0,0-2.48.41,4.94,4.94,0,0,0-2.55,1.72,8.45,8.45,0,0,0-.43.8l-4.61,10.08h4.87l4-8.75a4.1,4.1,0,0,1,.23-.43,3.56,3.56,0,0,1,1.78-1.2,4.11,4.11,0,0,1,1.13-.25h3.56c1.14,0,1.29.45,1.29.85a1.33,1.33,0,0,1-.14.58l-.76,1.67h4.81l.89-2a2.59,2.59,0,0,0,.15-.86,2.3,2.3,0,0,0-1.47-2.08"/>
        <path class="cls-8" d="M55.61,73.78q-1.24-1.63-5.4-1.63h-9a6.6,6.6,0,0,0-2.34.34,4.38,4.38,0,0,0-2.28,1.42l0,0L27,92.57h7.66L38.57,85h4.19a16,16,0,0,0,7.8-1.73,11.38,11.38,0,0,0,4.74-4.84q1.55-3,.31-4.64m-7,4.82a4.81,4.81,0,0,1-2.16,2,9.45,9.45,0,0,1-4.29.79H39.79L42,77.17h0a4.07,4.07,0,0,1,.24-.42,2.47,2.47,0,0,1,1.3-.81,3.85,3.85,0,0,1,1.34-.2h.56c1.79,0,2.86.28,3.22.84a1.92,1.92,0,0,1-.07,2"/>
        <path class="cls-8" d="M44.65,101.35h5c3.61,0,4.53,2.18,4.53,3.95s-.92,4-4.53,4H46.56v6.23H44.65Zm1.91,6.23h2.51c1.52,0,3-.37,3-2.28s-1.52-2.27-3-2.27H46.56Z"/>
        <polygon class="cls-8" points="55.9 101.35 65.02 101.35 65.02 103.14 57.81 103.14 57.81 107.36 64.52 107.36 64.52 109.15 57.81 109.15 57.81 113.68 65.38 113.68 65.38 115.47 55.9 115.47 55.9 101.35"/>
        <polygon class="cls-8" points="67.51 101.35 70.02 101.35 77.81 112.96 77.84 112.96 77.84 101.35 79.76 101.35 79.76 115.47 77.32 115.47 69.46 103.86 69.42 103.86 69.42 115.47 67.51 115.47 67.51 101.35"/>
        <path class="cls-8" d="M83.23,112.52a3.53,3.53,0,0,0,3,1.52c1.26,0,2.81-.8,2.81-2.35,0-3.25-7-1.24-7-6.75,0-1.66,1.4-3.95,4.79-3.95a4.89,4.89,0,0,1,4.07,1.62L89.38,104a3,3,0,0,0-2.52-1.24c-2.11,0-2.75,1.28-2.75,2.15,0,3.57,7,1.44,7,6.52,0,2.74-2.19,4.37-4.91,4.37a5.41,5.41,0,0,1-4.51-2Z"/>
        <rect class="cls-8" x="93.33" y="101.35" width="1.91" height="14.13"/>
        <path class="cls-8" d="M97.42,108.41a7.36,7.36,0,1,1,7.36,7.42,7.19,7.19,0,0,1-7.36-7.42m12.69,0a5.34,5.34,0,1,0-5.33,5.63,5.31,5.31,0,0,0,5.33-5.62"/>
        <polygon class="cls-8" points="114.31 101.35 116.83 101.35 124.61 112.96 124.64 112.96 124.64 101.35 126.56 101.35 126.56 115.47 124.13 115.47 116.27 103.86 116.23 103.86 116.23 115.47 114.31 115.47 114.31 101.35"/>
        <polygon class="cls-8" points="129.62 101.35 138.74 101.35 138.74 103.14 131.53 103.14 131.53 107.36 138.23 107.36 138.23 109.15 131.53 109.15 131.53 113.68 139.09 113.68 139.09 115.47 129.62 115.47 129.62 101.35"/>
        <path class="cls-8" d="M141.65,112.52a3.51,3.51,0,0,0,3,1.52c1.26,0,2.81-.8,2.81-2.35,0-3.25-7-1.24-7-6.75,0-1.66,1.4-3.95,4.79-3.95a4.88,4.88,0,0,1,4.07,1.62L147.79,104a3,3,0,0,0-2.51-1.24c-2.11,0-2.75,1.28-2.75,2.15,0,3.57,7,1.44,7,6.52,0,2.74-2.2,4.37-4.91,4.37a5.41,5.41,0,0,1-4.51-2Z"/>
        <path class="cls-8" d="M40,91.14c2.11,4.61,2.51,8.53.64,10.2-3,2.71-10.81-1.51-17.4-9.43s-9.49-16.54-6.47-19.25c2.42-2.17,7.9.12,13.38,5.18l0-1C24.08,71.41,18,69,15.21,71.54c-3.51,3.15-.41,12.84,6.93,21.65s16.12,13.4,19.63,10.25c2.29-2.06,1.75-6.92-.94-12.49Z"/>
      </g>
    </g>
  </g>
</svg>
