<svg id="Capa_1" data-name="Capa 1" xmlns="http://www.w3.org/2000/svg" viewBox="0 0 38.68 38.63"><defs><style>.cls-1{fill:#fff;}</style></defs><title>Icono Instagram</title><path class="cls-1" d="M19.34,38.63A19.32,19.32,0,1,1,38.68,19.31,19.36,19.36,0,0,1,19.34,38.63Zm0-36.8A17.48,17.48,0,1,0,36.85,19.31,17.51,17.51,0,0,0,19.34,1.83Zm6.52,9.65a1.43,1.43,0,1,0,1.44,1.43A1.43,1.43,0,0,0,25.86,11.48ZM19.5,13.31a6,6,0,1,0,6,6A6,6,0,0,0,19.5,13.31Zm0,9.85a3.85,3.85,0,1,1,3.85-3.85A3.86,3.86,0,0,1,19.5,23.16Zm12.13-8.84A7.33,7.33,0,0,0,24.3,7H14.62a7.33,7.33,0,0,0-7.33,7.32V24a7.33,7.33,0,0,0,7.33,7.32H24.3A7.33,7.33,0,0,0,31.63,24ZM29.34,24a5,5,0,0,1-5,5H14.62a5,5,0,0,1-5-5V14.32a5,5,0,0,1,5-5H24.3a5,5,0,0,1,5,5Z"/></svg>