<svg id="Capa_1" data-name="Capa 1" xmlns="http://www.w3.org/2000/svg" viewBox="0 0 38.94 38.88"><defs><style>.cls-1{fill:#fff;}</style></defs><title>Icono youtube</title><path class="cls-1" d="M19.47,38.88A19.44,19.44,0,1,1,38.94,19.44,19.47,19.47,0,0,1,19.47,38.88Zm0-36.79A17.35,17.35,0,1,0,36.85,19.44,17.38,17.38,0,0,0,19.47,2.09Z"/><path class="cls-1" d="M31.13,16.49a5,5,0,0,0-5-5h-13a5,5,0,0,0-5,5v6.07a5,5,0,0,0,5,5h13a5,5,0,0,0,5-5Zm-8.19,3.34-5.17,2.83c-.22.13-.42,0-.42-.29V16.55c0-.25.2-.42.43-.29l5.21,3A.34.34,0,0,1,22.94,19.83Z"/></svg>