<?xml version="1.0" encoding="UTF-8"?><svg id="Capa_1" xmlns="http://www.w3.org/2000/svg" xmlns:xlink="http://www.w3.org/1999/xlink" viewBox="0 0 30 30"><defs><style>.cls-1{fill:#fff;stroke-width:0px;}.cls-2{filter:url(#outer-glow-1);}</style><filter id="outer-glow-1" filterUnits="userSpaceOnUse"><feOffset dx="0" dy="0"/><feGaussianBlur result="blur" stdDeviation="2"/><feFlood flood-color="#fff" flood-opacity=".75"/><feComposite in2="blur" operator="in"/><feComposite in="SourceGraphic"/></filter></defs><g class="cls-2"><path class="cls-1" d="m25.4,25.34l-8.35-12.12-.94-1.37L10.14,3.17l-.49-.72H2.31l1.79,2.6,7.94,11.53.94,1.37,6.38,9.27.49.72h7.34l-1.79-2.6Zm-4.67.94l-6.63-9.63-.94-1.37L5.46,4.11h3.31l6.22,9.03.94,1.37,8.1,11.76h-3.31Z"/><polygon class="cls-1" points="13.15 15.29 14.1 16.66 12.98 17.96 4.4 27.94 2.28 27.94 12.04 16.59 13.15 15.29"/><polygon class="cls-1" points="26.3 2.46 17.05 13.22 15.93 14.52 14.99 13.15 16.11 11.85 22.38 4.55 24.19 2.46 26.3 2.46"/></g></svg>