<svg id="Capa_1" data-name="Capa 1" xmlns="http://www.w3.org/2000/svg" viewBox="0 0 38.94 38.88"><defs><style>.cls-1,.cls-2{fill:#fff;}.cls-2{fill-rule:evenodd;}</style></defs><title>Icono Facebook</title><path class="cls-1" d="M19.47,38.88A19.44,19.44,0,1,1,38.94,19.44,19.47,19.47,0,0,1,19.47,38.88Zm0-36.79A17.35,17.35,0,1,0,36.85,19.44,17.38,17.38,0,0,0,19.47,2.09Z"/><path class="cls-2" d="M16.42,19.53V30.8a.29.29,0,0,0,.29.29H20.9a.29.29,0,0,0,.29-.29V19.35h3a.29.29,0,0,0,.29-.27l.3-3.45a.3.3,0,0,0-.3-.32H21.19V12.86a1,1,0,0,1,1-1h2.35a.29.29,0,0,0,.29-.29V8.08a.29.29,0,0,0-.29-.29h-4a4.2,4.2,0,0,0-4.2,4.2v3.32h-2.1a.29.29,0,0,0-.29.29v3.45a.29.29,0,0,0,.29.3h2.1Z"/></svg>