<svg id="Capa_1" data-name="Capa 1" xmlns="http://www.w3.org/2000/svg" viewBox="0 0 219.32 67.95"><defs><style>.cls-1{fill:#fff;}.cls-2{fill:none;}</style></defs><title>Logo asamblea de trabajadores</title><polygon class="cls-1" points="0 50.08 52.03 0.89 60.33 48.58 39.95 32.18 0 50.08"/><path class="cls-2" d="M43.06,37.41v-.55l-3.36-2.71L31.12,38l11.4,0,0,6.46H37.36a9.41,9.41,0,0,0,12.51-2.08l-6.13-4.93Z"/><polygon class="cls-1" points="61.5 37.34 61.47 30.91 58.98 30.91 60.1 37.35 61.5 37.34"/><path class="cls-1" d="M44.11,0l0,6L49,1.4A18.46,18.46,0,0,0,44.11,0Z"/><path class="cls-1" d="M60.65,19a19.15,19.15,0,0,0-6.19-14l4,23A18.94,18.94,0,0,0,60.65,19Z"/><path class="cls-1" d="M42.38,0,35.94,0V5A19.2,19.2,0,0,0,5,17.39l9.9,0A9.49,9.49,0,0,1,29.17,12l-5.19,0,0,6.45,6.94,0L42.41,7.65Z"/><path class="cls-1" d="M22.43,56.46l0-9.9a9.48,9.48,0,0,1-4.29-2.73L9,47.9A19.14,19.14,0,0,0,22.43,56.46Z"/><path class="cls-1" d="M23.48,19.05,5,19.12l0,6.44H10a19.13,19.13,0,0,0-4.12,12,19.4,19.4,0,0,0,.49,4.21L23.5,25.52Z"/><path class="cls-1" d="M61.5,39.07H60.4l.49,2.78A18.34,18.34,0,0,0,61.5,39.07Z"/><path class="cls-1" d="M49.87,42.34a9.41,9.41,0,0,1-12.51,2.08h5.18l0-6.46-11.4,0-7,3.16.05,15.31,6.46,0,0-4.93a19.15,19.15,0,0,0,26.83-3.1Z"/><path class="cls-1" d="M1.29,62.39H3a3,3,0,0,1,.67.07,1.76,1.76,0,0,1,.58.23,1.27,1.27,0,0,1,.42.41,1.24,1.24,0,0,1,.16.64,1.21,1.21,0,0,1-.26.79,1.38,1.38,0,0,1-.7.45v0a1.37,1.37,0,0,1,.89.42,1.29,1.29,0,0,1,.26.42,1.19,1.19,0,0,1,.1.51,1.35,1.35,0,0,1-.19.75,1.47,1.47,0,0,1-.49.47,2.24,2.24,0,0,1-.7.25,3.91,3.91,0,0,1-.76.07H1.31ZM2,64.71h.9a3.44,3.44,0,0,0,.46,0,1.25,1.25,0,0,0,.4-.13A.81.81,0,0,0,4,64.28a.82.82,0,0,0,.11-.47.69.69,0,0,0-.37-.66A1.14,1.14,0,0,0,3.35,63a3.11,3.11,0,0,0-.43,0H2Zm0,2.57h1.1a1.91,1.91,0,0,0,.48,0A1.47,1.47,0,0,0,4,67.06a.86.86,0,0,0,.3-.3.79.79,0,0,0,.12-.45.9.9,0,0,0-.12-.48A.86.86,0,0,0,4,65.52a1.31,1.31,0,0,0-.42-.16,2.63,2.63,0,0,0-.49,0H2Z"/><path class="cls-1" d="M9.06,62.36h.61L12,67.85h-.76L10.7,66.5H8l-.56,1.35H6.65Zm.3.84h0L8.21,65.9h2.24Z"/><path class="cls-1" d="M13.83,62.34h.82l3.2,4.56h0l0-4.57h.65l0,5.49H17.7l-3.2-4.56h0l0,4.57h-.65Z"/><path class="cls-1" d="M24.81,63.44a1.47,1.47,0,0,0-.61-.5,1.87,1.87,0,0,0-.76-.17,2,2,0,0,0-.85.19,2.34,2.34,0,0,0-.66.51,2.31,2.31,0,0,0-.43.73,2.51,2.51,0,0,0-.15.86,2.36,2.36,0,0,0,.16.9,2,2,0,0,0,.43.72,1.9,1.9,0,0,0,.66.49,2.15,2.15,0,0,0,.85.17,2,2,0,0,0,.9-.2,1.89,1.89,0,0,0,.69-.57l.49.41a2.23,2.23,0,0,1-.89.73,2.84,2.84,0,0,1-1.19.24,2.7,2.7,0,0,1-1.1-.22,2.7,2.7,0,0,1-1.48-1.51,2.88,2.88,0,0,1-.22-1.15,3.07,3.07,0,0,1,.2-1.14,2.82,2.82,0,0,1,.58-.92,2.62,2.62,0,0,1,.88-.61,2.73,2.73,0,0,1,1.12-.23,2.8,2.8,0,0,1,1.08.2,2,2,0,0,1,.87.65Z"/><path class="cls-1" d="M30.09,67.92a3.11,3.11,0,0,1-1.16-.21,2.67,2.67,0,0,1-.91-.6,2.88,2.88,0,0,1-.6-.91A3.37,3.37,0,0,1,27.2,65a3.09,3.09,0,0,1,.21-1.15,2.71,2.71,0,0,1,1.5-1.52,3.11,3.11,0,0,1,1.16-.23,2.88,2.88,0,0,1,1.15.22,2.67,2.67,0,0,1,.91.6,2.58,2.58,0,0,1,.6.91A2.91,2.91,0,0,1,33,65a3.15,3.15,0,0,1-.21,1.16,2.63,2.63,0,0,1-1.5,1.52A2.88,2.88,0,0,1,30.09,67.92Zm0-.6a2.14,2.14,0,0,0,.88-.19,1.94,1.94,0,0,0,.68-.49,2.25,2.25,0,0,0,.45-.73,2.54,2.54,0,0,0,.15-.88,2.37,2.37,0,0,0-.61-1.62,2,2,0,0,0-.69-.48,2.13,2.13,0,0,0-.88-.18,2.1,2.1,0,0,0-.88.18,2.08,2.08,0,0,0-1.13,1.22,2.42,2.42,0,0,0-.16.89,2.6,2.6,0,0,0,.16.89,2.2,2.2,0,0,0,.45.72,2.23,2.23,0,0,0,.69.49A2.14,2.14,0,0,0,30.09,67.32Z"/><path class="cls-1" d="M38.32,62.25H40a3.41,3.41,0,0,1,.73.07,1.8,1.8,0,0,1,.62.25,1.24,1.24,0,0,1,.42.46,1.67,1.67,0,0,1,0,1.47,1.39,1.39,0,0,1-.44.46,1.76,1.76,0,0,1-.58.25,3.46,3.46,0,0,1-.61.07H39v2.47h-.66ZM39,64.67h1.11a1.3,1.3,0,0,0,.79-.22.79.79,0,0,0,.31-.69.81.81,0,0,0-.31-.69,1.4,1.4,0,0,0-.8-.22H39Z"/><path class="cls-1" d="M46.59,67.86a2.87,2.87,0,0,1-1.15-.21,2.58,2.58,0,0,1-.91-.6,2.75,2.75,0,0,1-.61-.91,3.28,3.28,0,0,1,0-2.31,2.85,2.85,0,0,1,.59-.92,2.67,2.67,0,0,1,.91-.6,2.88,2.88,0,0,1,1.15-.22,2.68,2.68,0,0,1,1.15.21,2.62,2.62,0,0,1,.92.6,2.88,2.88,0,0,1,.6.91A3.36,3.36,0,0,1,49.46,65a3.15,3.15,0,0,1-.21,1.16,2.87,2.87,0,0,1-.6.92,2.72,2.72,0,0,1-.91.6A2.84,2.84,0,0,1,46.59,67.86Zm0-.6a2.13,2.13,0,0,0,.88-.18,2,2,0,0,0,.69-.5,2.28,2.28,0,0,0,.44-.72,2.42,2.42,0,0,0,.16-.89,2.56,2.56,0,0,0-.17-.89,2.11,2.11,0,0,0-1.13-1.21,2.18,2.18,0,0,0-.89-.18,2.13,2.13,0,0,0-.88.18,2.23,2.23,0,0,0-.68.49,2.36,2.36,0,0,0-.45.73,2.64,2.64,0,0,0-.15.89,2.38,2.38,0,0,0,.16.89,2.36,2.36,0,0,0,.45.73,2.14,2.14,0,0,0,.69.48A2.1,2.1,0,0,0,46.59,67.26Z"/><path class="cls-1" d="M51.58,62.21h1.63a3.41,3.41,0,0,1,.73.07,1.74,1.74,0,0,1,.61.25A1.27,1.27,0,0,1,55,63a1.47,1.47,0,0,1,.16.72,1.54,1.54,0,0,1-.16.75,1.39,1.39,0,0,1-.44.46,1.81,1.81,0,0,1-.59.25,2.58,2.58,0,0,1-.6.07H52.24V67.7H51.6Zm.66,2.42h1.1a1.31,1.31,0,0,0,.8-.22.93.93,0,0,0,0-1.37,1.35,1.35,0,0,0-.8-.22h-1.1Z"/><path class="cls-1" d="M61.41,65.57a3.43,3.43,0,0,1-.11.86,2,2,0,0,1-.35.71,1.74,1.74,0,0,1-.64.49,2.36,2.36,0,0,1-1,.19,2.32,2.32,0,0,1-1-.18,1.66,1.66,0,0,1-.64-.49,1.77,1.77,0,0,1-.36-.71,3,3,0,0,1-.12-.85v-3.4h.65v3.31a3.4,3.4,0,0,0,.08.65,1.5,1.5,0,0,0,.23.55,1.16,1.16,0,0,0,.44.38,1.4,1.4,0,0,0,.68.14,1.49,1.49,0,0,0,.68-.14,1.19,1.19,0,0,0,.44-.39,1.6,1.6,0,0,0,.23-.55,2.76,2.76,0,0,0,.07-.65V62.17h.65Z"/><path class="cls-1" d="M63.83,62.16h.65l0,4.89H67v.61H63.85Z"/><path class="cls-1" d="M70.59,62.14h.61l2.36,5.49H72.8l-.57-1.35H69.48l-.56,1.35h-.74Zm.29.84h0l-1.13,2.7H72Z"/><path class="cls-1" d="M75.35,62.12h1.41a7,7,0,0,1,.79,0,2.19,2.19,0,0,1,.7.2,1.23,1.23,0,0,1,.51.45,1.56,1.56,0,0,1,.2.81,1.31,1.31,0,0,1-.37,1,1.72,1.72,0,0,1-1,.48l1.57,2.53h-.8l-1.5-2.46H76v2.47h-.66ZM76,64.54h.58l.56,0a1.91,1.91,0,0,0,.54-.1,1,1,0,0,0,.4-.27.81.81,0,0,0,.16-.52.85.85,0,0,0-.12-.48.74.74,0,0,0-.31-.27,1.2,1.2,0,0,0-.43-.13,3.71,3.71,0,0,0-.47,0H76Z"/><path class="cls-1" d="M85.74,65.21l-2.06-3.12h.83l1.56,2.48,1.58-2.49h.78l-2,3.14v2.37h-.65Z"/><path class="cls-1" d="M93.28,62.06h2.11a3,3,0,0,1,.58.06,2.82,2.82,0,0,1,.6.2,2.71,2.71,0,0,1,.58.35,2.39,2.39,0,0,1,.48.52,2.53,2.53,0,0,1,.34.7,3.17,3.17,0,0,1,.13.91,3.06,3.06,0,0,1-.12.9,2.75,2.75,0,0,1-.34.71,2.22,2.22,0,0,1-.48.53,2.82,2.82,0,0,1-.57.35,2.35,2.35,0,0,1-.6.2,2.41,2.41,0,0,1-.58.07H93.3ZM94,67h1.24a3.07,3.07,0,0,0,.88-.12,2.08,2.08,0,0,0,.7-.39,1.82,1.82,0,0,0,.46-.67,2.55,2.55,0,0,0,.17-1,2.37,2.37,0,0,0-.18-1,1.78,1.78,0,0,0-.46-.66,2,2,0,0,0-.7-.38,2.8,2.8,0,0,0-.88-.12H93.93Z"/><path class="cls-1" d="M100.22,62h3.46v.61h-2.8v1.72h2.62V65h-2.61v2h3v.61h-3.6Z"/><path class="cls-1" d="M109.06,62h2.11a3,3,0,0,1,.58.06,2.82,2.82,0,0,1,.6.2,3.2,3.2,0,0,1,.58.35,2.65,2.65,0,0,1,.48.52,2.34,2.34,0,0,1,.34.71,3.1,3.1,0,0,1,.13.9,3.18,3.18,0,0,1-.12.91,2.72,2.72,0,0,1-.33.71,2.21,2.21,0,0,1-.49.52,2.48,2.48,0,0,1-.57.36,2.82,2.82,0,0,1-.6.2,3,3,0,0,1-.58.06h-2.11Zm.67,4.89H111a3.06,3.06,0,0,0,.88-.13A1.78,1.78,0,0,0,113,65.71a2.42,2.42,0,0,0,.17-1,2.59,2.59,0,0,0-.17-1,2.13,2.13,0,0,0-.47-.66,1.9,1.9,0,0,0-.7-.38,3.12,3.12,0,0,0-.88-.12h-1.24Z"/><path class="cls-1" d="M116,62l3.46,0v.61h-2.8V64.3h2.61v.61h-2.61v2h3v.6H116Z"/><path class="cls-1" d="M124.31,62.92a1,1,0,0,0-.43-.39,1.29,1.29,0,0,0-.57-.11,1.54,1.54,0,0,0-.43,0,1.3,1.3,0,0,0-.38.17.77.77,0,0,0-.26.28.93.93,0,0,0,0,.75.61.61,0,0,0,.19.26,1.49,1.49,0,0,0,.36.22,4.74,4.74,0,0,0,.55.2l.62.21a2.28,2.28,0,0,1,.53.3,1.29,1.29,0,0,1,.36.44A1.51,1.51,0,0,1,125,66a1.44,1.44,0,0,1-.59,1.22,2,2,0,0,1-.61.3,2.78,2.78,0,0,1-1.21.06,2.42,2.42,0,0,1-.46-.13,2.13,2.13,0,0,1-.42-.23,1.42,1.42,0,0,1-.33-.36l.55-.46a1.11,1.11,0,0,0,.5.46,1.6,1.6,0,0,0,.68.15,1.52,1.52,0,0,0,.42-.06,1.27,1.27,0,0,0,.39-.18,1.33,1.33,0,0,0,.28-.3.82.82,0,0,0,.1-.42.93.93,0,0,0-.08-.41.8.8,0,0,0-.27-.28,2.4,2.4,0,0,0-.45-.2l-.64-.22a3.38,3.38,0,0,1-.54-.21,1.71,1.71,0,0,1-.44-.3,1.2,1.2,0,0,1-.28-.41,1.35,1.35,0,0,1-.11-.59,1.52,1.52,0,0,1,.15-.69,1.44,1.44,0,0,1,.42-.5,2,2,0,0,1,.6-.3,2.26,2.26,0,0,1,.69-.1,2.58,2.58,0,0,1,.86.14,1.69,1.69,0,0,1,.68.5Z"/><path class="cls-1" d="M128.89,61.93h.61l2.36,5.49h-.76l-.56-1.35h-2.75l-.57,1.35h-.73Zm.3.84h0L128,65.47h2.24Z"/><path class="cls-1" d="M133.66,61.91h1.4a6.85,6.85,0,0,1,.79,0,2.25,2.25,0,0,1,.71.2,1.27,1.27,0,0,1,.5.45,1.47,1.47,0,0,1,.2.81,1.35,1.35,0,0,1-.36,1,1.75,1.75,0,0,1-1,.48l1.57,2.53h-.8l-1.5-2.46h-.84v2.47h-.65Zm.66,2.42h.58l.57,0a1.78,1.78,0,0,0,.53-.1,1,1,0,0,0,.4-.27.75.75,0,0,0,.16-.52.85.85,0,0,0-.12-.48.74.74,0,0,0-.31-.27,1.15,1.15,0,0,0-.42-.13l-.48,0h-.92Z"/><path class="cls-1" d="M139.49,61.89h1.41a5.29,5.29,0,0,1,.79,0,2.19,2.19,0,0,1,.7.2,1.29,1.29,0,0,1,.51.45,1.47,1.47,0,0,1,.19.81,1.35,1.35,0,0,1-.36,1,1.75,1.75,0,0,1-1,.48l1.57,2.53h-.8L141,64.91h-.84v2.47h-.65Zm.66,2.42h.58l.57,0a1.78,1.78,0,0,0,.53-.1,1,1,0,0,0,.41-.27.81.81,0,0,0,.15-.52,1,1,0,0,0-.11-.48.8.8,0,0,0-.31-.27,1.2,1.2,0,0,0-.43-.13,3.87,3.87,0,0,0-.48,0h-.91Z"/><path class="cls-1" d="M147.9,67.5a3,3,0,0,1-1.15-.21,2.67,2.67,0,0,1-1.52-1.52,3.27,3.27,0,0,1-.22-1.15,3.09,3.09,0,0,1,.21-1.15,2.77,2.77,0,0,1,.6-.92,2.81,2.81,0,0,1,.9-.61,3.11,3.11,0,0,1,1.16-.22,3.06,3.06,0,0,1,1.15.21,2.88,2.88,0,0,1,.91.6,2.79,2.79,0,0,1,.61.92,3.09,3.09,0,0,1,.21,1.15,3.06,3.06,0,0,1-.21,1.15,2.65,2.65,0,0,1-.59.92,2.85,2.85,0,0,1-.91.61A3.06,3.06,0,0,1,147.9,67.5Zm0-.61a2.13,2.13,0,0,0,.88-.18,2.08,2.08,0,0,0,.68-.49,2.36,2.36,0,0,0,.45-.73,2.56,2.56,0,0,0,.15-.89,2.32,2.32,0,0,0-.61-1.61,2,2,0,0,0-.69-.49,2.09,2.09,0,0,0-.88-.17,2.13,2.13,0,0,0-.88.18,2,2,0,0,0-.69.49,2.33,2.33,0,0,0-.44.73,2.38,2.38,0,0,0-.16.89,2.65,2.65,0,0,0,.17.89,2.12,2.12,0,0,0,.44.72,2.16,2.16,0,0,0,.7.49A2,2,0,0,0,147.9,66.89Z"/><path class="cls-1" d="M152.89,61.84h.65l0,4.89h2.51v.61h-3.17Z"/><path class="cls-1" d="M157.86,61.83h.65l0,4.9h2.52v.6h-3.17Z"/><path class="cls-1" d="M165.41,67.44a2.92,2.92,0,0,1-1.16-.22,2.67,2.67,0,0,1-.91-.6,2.58,2.58,0,0,1-.6-.91,3.1,3.1,0,0,1-.22-1.15,3.15,3.15,0,0,1,.21-1.16,2.58,2.58,0,0,1,.6-.91,2.7,2.7,0,0,1,.9-.61,2.91,2.91,0,0,1,1.15-.22,3.11,3.11,0,0,1,1.16.21,3,3,0,0,1,.91.6,2.62,2.62,0,0,1,.6.92,2.88,2.88,0,0,1,.22,1.15,3.09,3.09,0,0,1-.21,1.15,2.74,2.74,0,0,1-.59.92,2.67,2.67,0,0,1-.91.6A2.91,2.91,0,0,1,165.41,67.44Zm0-.61a2.07,2.07,0,0,0,.88-.18,2,2,0,0,0,.69-.49,2.16,2.16,0,0,0,.44-.73,2.38,2.38,0,0,0,.16-.89,2.6,2.6,0,0,0-.16-.89,2.2,2.2,0,0,0-.45-.72,2,2,0,0,0-.69-.49,2.13,2.13,0,0,0-.88-.18,2.1,2.1,0,0,0-.88.19,2,2,0,0,0-.69.49,2.16,2.16,0,0,0-.44.73,2.35,2.35,0,0,0-.16.89,2.55,2.55,0,0,0,.16.88,2.36,2.36,0,0,0,.45.73,2,2,0,0,0,.69.49A2.3,2.3,0,0,0,165.4,66.83Z"/><path class="cls-1" d="M177.5,62.89a1.58,1.58,0,0,0-.62-.5,1.68,1.68,0,0,0-.76-.16,1.79,1.79,0,0,0-.84.19,1.93,1.93,0,0,0-.66.5,2.33,2.33,0,0,0-.44.73,2.58,2.58,0,0,0,0,1.76,2.34,2.34,0,0,0,.43.72,2,2,0,0,0,.67.49,2.11,2.11,0,0,0,.85.17,1.94,1.94,0,0,0,1.59-.77l.49.41a2.33,2.33,0,0,1-.9.73,2.8,2.8,0,0,1-1.18.24,2.7,2.7,0,0,1-1.1-.22,2.76,2.76,0,0,1-.9-.59,2.8,2.8,0,0,1-.59-.91,3.15,3.15,0,0,1-.22-1.16,3.33,3.33,0,0,1,.2-1.14,2.82,2.82,0,0,1,3.66-1.56,1.88,1.88,0,0,1,.87.66Z"/><path class="cls-1" d="M182.77,67.38a2.88,2.88,0,0,1-1.15-.22,2.58,2.58,0,0,1-.91-.6,2.75,2.75,0,0,1-.61-.91,3.28,3.28,0,0,1,0-2.31,2.63,2.63,0,0,1,1.5-1.52,2.88,2.88,0,0,1,1.15-.22,3,3,0,0,1,1.16.21,2.77,2.77,0,0,1,.91.6,2.88,2.88,0,0,1,.6.91,3.13,3.13,0,0,1,.21,1.15,3,3,0,0,1-.2,1.16,2.87,2.87,0,0,1-.6.92,2.58,2.58,0,0,1-.91.6A3.06,3.06,0,0,1,182.77,67.38Zm0-.61a2.13,2.13,0,0,0,.88-.18,2.28,2.28,0,0,0,.69-.49,2.45,2.45,0,0,0,.44-.73,2.41,2.41,0,0,0,.15-.89,2.38,2.38,0,0,0-.16-.89,2,2,0,0,0-.45-.73,2.14,2.14,0,0,0-.69-.48,2.1,2.1,0,0,0-.88-.18,2.13,2.13,0,0,0-.88.18,2.1,2.1,0,0,0-.68.5,2.31,2.31,0,0,0-.45.72,2.64,2.64,0,0,0-.15.89,2.37,2.37,0,0,0,.61,1.62,2,2,0,0,0,.69.48A2.1,2.1,0,0,0,182.77,66.77Z"/><path class="cls-1" d="M187.76,61.72h1L190.61,66h0l1.86-4.32h.95l0,5.5h-.65l0-4.61h0l-2,4.62h-.4l-2-4.61h0v4.61h-.65Z"/><path class="cls-1" d="M200,65.08a3.35,3.35,0,0,1-.11.85,1.91,1.91,0,0,1-.36.71,1.63,1.63,0,0,1-.63.49,2.21,2.21,0,0,1-1,.19,2.32,2.32,0,0,1-1-.18,1.59,1.59,0,0,1-.64-.49,1.77,1.77,0,0,1-.36-.71,2.91,2.91,0,0,1-.12-.85v-3.4h.65V65a2.75,2.75,0,0,0,.08.65,1.43,1.43,0,0,0,.23.55,1.09,1.09,0,0,0,.44.38,1.29,1.29,0,0,0,.68.14,1.37,1.37,0,0,0,.68-.14,1.28,1.28,0,0,0,.44-.39,1.82,1.82,0,0,0,.23-.55,3.41,3.41,0,0,0,.07-.65l0-3.3H200Z"/><path class="cls-1" d="M202.45,61.67h.82l3.2,4.56h0l0-4.57h.65l0,5.5h-.82l-3.2-4.56h0l0,4.57h-.65Z"/><path class="cls-1" d="M211.36,61.63H212l2.35,5.49h-.76L213,65.77h-2.75l-.56,1.36H209Zm.3.84h0l-1.14,2.71h2.25Z"/><path class="cls-1" d="M216.13,61.62h.65l0,4.9h2.52v.6l-3.17,0Z"/><path class="cls-1" d="M69.62,30.37h-3.4V28.06l9.43,0v2.33h-3.4l0,9.6H69.66Z"/><path class="cls-1" d="M77,28l4.62,0a8.65,8.65,0,0,1,1.72.17,4,4,0,0,1,1.44.59,2.9,2.9,0,0,1,1,1.1,3.94,3.94,0,0,1,.37,1.75,3.56,3.56,0,0,1-.65,2.15,3,3,0,0,1-1.92,1.12l3,5H83.43l-2.51-4.76H79.63v4.76H77Zm2.65,4.92h1.55l.75,0a2.55,2.55,0,0,0,.71-.15,1.31,1.31,0,0,0,.53-.4,1.23,1.23,0,0,0,.21-.76,1.2,1.2,0,0,0-.19-.72,1.16,1.16,0,0,0-.47-.41,2.13,2.13,0,0,0-.66-.2,4.47,4.47,0,0,0-.72,0H79.61Z"/><path class="cls-1" d="M91.81,28H94l5.23,11.9h-3l-1-2.52-4.63,0-1,2.53H86.7Zm1,3.46L91.4,35.14h2.91Z"/><path class="cls-1" d="M100.36,27.93h4.45a11.67,11.67,0,0,1,1.56.1,4.23,4.23,0,0,1,1.41.44,2.68,2.68,0,0,1,1,.91,2.77,2.77,0,0,1,.39,1.56,2.42,2.42,0,0,1-.56,1.68,3,3,0,0,1-1.48,1v0a3.62,3.62,0,0,1,1.07.33,2.82,2.82,0,0,1,.82.62,2.55,2.55,0,0,1,.54.88,3.18,3.18,0,0,1,.19,1.08,2.84,2.84,0,0,1-.4,1.57,3.17,3.17,0,0,1-1,1,4.82,4.82,0,0,1-1.44.57,7.81,7.81,0,0,1-1.59.17l-4.88,0ZM103,32.69h1.9a2.46,2.46,0,0,0,.6-.07,1.39,1.39,0,0,0,.53-.22,1.12,1.12,0,0,0,.38-.4,1.28,1.28,0,0,0,.14-.61,1,1,0,0,0-.17-.61,1.07,1.07,0,0,0-.41-.38,2,2,0,0,0-.57-.19,3.44,3.44,0,0,0-.63-.06H103Zm0,4.93h2.35a3.27,3.27,0,0,0,.62-.07,1.76,1.76,0,0,0,.56-.24,1.26,1.26,0,0,0,.57-1.1,1.06,1.06,0,0,0-.21-.68,1.38,1.38,0,0,0-.53-.39,3.13,3.13,0,0,0-.7-.19,5.53,5.53,0,0,0-.69,0h-2Z"/><path class="cls-1" d="M115.2,27.88h2.17l5.23,11.91h-3l-1-2.52H114l-1,2.53h-2.9Zm1,3.47-1.43,3.71h2.91Z"/><path class="cls-1" d="M130,35.76a9.34,9.34,0,0,1-.14,1.6,3.55,3.55,0,0,1-.54,1.37,2.9,2.9,0,0,1-1.15,1,4.57,4.57,0,0,1-2,.37,4.13,4.13,0,0,1-2.4-.67,3.18,3.18,0,0,1-1.27-2.1l2.41-.6a1.1,1.1,0,0,0,.4.74,1.07,1.07,0,0,0,.78.3,1,1,0,0,0,.71-.23,1.45,1.45,0,0,0,.37-.56,3.37,3.37,0,0,0,.14-.73c0-.27,0-.51,0-.74l0-7.64h2.63Z"/><path class="cls-1" d="M136.1,27.81h2.17l5.23,11.9h-3l-1-2.52-4.63,0-1,2.53H131Zm1,3.46L135.69,35h2.91Z"/><path class="cls-1" d="M144.65,27.78l3.94,0a11.54,11.54,0,0,1,2.73.31,6.27,6.27,0,0,1,2.25,1A5.06,5.06,0,0,1,155.1,31a6.21,6.21,0,0,1,.57,2.78,5.57,5.57,0,0,1-.54,2.55,5.47,5.47,0,0,1-1.46,1.86,6.58,6.58,0,0,1-2.14,1.15,8.23,8.23,0,0,1-2.54.39l-4.29,0Zm2.66,9.48h1.37a7.54,7.54,0,0,0,1.69-.19,3.64,3.64,0,0,0,1.35-.62,3.05,3.05,0,0,0,.9-1.13,4,4,0,0,0,.32-1.71,3.32,3.32,0,0,0-.33-1.53,3.06,3.06,0,0,0-.89-1.06,3.89,3.89,0,0,0-1.31-.63,5.41,5.41,0,0,0-1.57-.2h-1.55Z"/><path class="cls-1" d="M156.82,33.69a6.53,6.53,0,0,1,.47-2.59,5.62,5.62,0,0,1,1.33-2,6.1,6.1,0,0,1,2-1.26,7.93,7.93,0,0,1,5.15,0,6,6,0,0,1,2,1.25,5.64,5.64,0,0,1,1.34,2,7.23,7.23,0,0,1,0,5.18,5.75,5.75,0,0,1-1.33,2,6.1,6.1,0,0,1-2,1.26,7.68,7.68,0,0,1-2.58.45,7.43,7.43,0,0,1-2.58-.43,6.07,6.07,0,0,1-2-1.25,5.69,5.69,0,0,1-1.34-2A6.58,6.58,0,0,1,156.82,33.69Zm2.72,0a4.44,4.44,0,0,0,.27,1.54,3.64,3.64,0,0,0,.75,1.21,3.47,3.47,0,0,0,1.18.8,4.2,4.2,0,0,0,3,0,3.23,3.23,0,0,0,1.17-.81,3.34,3.34,0,0,0,.75-1.21,4.26,4.26,0,0,0,.25-1.54,4.47,4.47,0,0,0-.26-1.53,3.46,3.46,0,0,0-.76-1.22,3.34,3.34,0,0,0-1.17-.8,4.22,4.22,0,0,0-3,0,3.56,3.56,0,0,0-1.17.81,3.5,3.5,0,0,0-.74,1.22A4.47,4.47,0,0,0,159.54,33.68Z"/><path class="cls-1" d="M171.45,27.68l4.61,0a8.75,8.75,0,0,1,1.73.17,4.07,4.07,0,0,1,1.43.59,2.86,2.86,0,0,1,1,1.11,3.74,3.74,0,0,1,.37,1.74,3.56,3.56,0,0,1-.65,2.15A3,3,0,0,1,178,34.54l3.05,5H177.9l-2.51-4.76H174.1v4.76h-2.62Zm2.64,4.92h1.55l.75,0a2.55,2.55,0,0,0,.71-.15,1.25,1.25,0,0,0,.53-.4,1.47,1.47,0,0,0,0-1.48,1.16,1.16,0,0,0-.47-.41,2.13,2.13,0,0,0-.66-.2,6,6,0,0,0-.72,0h-1.72Z"/><path class="cls-1" d="M182.46,27.64l8.1,0V30l-5.48,0v2.22l5.17,0v2.43h-5.17v2.43l5.77,0v2.42l-8.4,0Z"/><path class="cls-1" d="M198.87,30.49a1.9,1.9,0,0,0-.87-.59,3.06,3.06,0,0,0-1-.19,2.36,2.36,0,0,0-.58.07,2.23,2.23,0,0,0-.58.21,1.31,1.31,0,0,0-.43.38,1,1,0,0,0-.17.58,1,1,0,0,0,.41.82,3.72,3.72,0,0,0,1,.48c.41.14.85.27,1.32.4a6.06,6.06,0,0,1,1.33.57,3.21,3.21,0,0,1,1,1,3,3,0,0,1,.41,1.67,3.77,3.77,0,0,1-.37,1.73,3.45,3.45,0,0,1-1,1.24,4.21,4.21,0,0,1-1.47.72,6.27,6.27,0,0,1-1.75.25,6.52,6.52,0,0,1-2.16-.35,5.38,5.38,0,0,1-1.86-1.14L194,36.27a2.69,2.69,0,0,0,1,.83,2.84,2.84,0,0,0,1.27.29,3,3,0,0,0,.65-.08,1.85,1.85,0,0,0,.58-.23,1.19,1.19,0,0,0,.42-.38,1,1,0,0,0,.16-.56,1,1,0,0,0-.41-.85,3.89,3.89,0,0,0-1-.53c-.42-.14-.87-.29-1.35-.43a5.82,5.82,0,0,1-1.35-.59,3.11,3.11,0,0,1-1-1,2.89,2.89,0,0,1-.42-1.6,3.59,3.59,0,0,1,.38-1.68,3.7,3.7,0,0,1,1-1.22,4.45,4.45,0,0,1,1.46-.73,6,6,0,0,1,1.7-.26,6.71,6.71,0,0,1,2,.28,4.43,4.43,0,0,1,1.7,1Z"/><path class="cls-1" d="M70.32,49.91l-4.51-6.82h3.27l2.54,4.45,2.66-4.47H77.4L72.94,49.9,73,55H70.33Z"/><path class="cls-1" d="M85.57,45.34h-3.4V43l9.43,0v2.32H88.2l0,9.6H85.61Z"/><path class="cls-1" d="M92.92,43h4.62a7.47,7.47,0,0,1,1.73.17,4.06,4.06,0,0,1,1.43.58,2.86,2.86,0,0,1,1,1.11,3.74,3.74,0,0,1,.37,1.74,3.56,3.56,0,0,1-.65,2.15,3,3,0,0,1-1.92,1.13l3,5H99.38l-2.51-4.76H95.58v4.77H93Zm2.65,4.93h1.55l.75,0a2.24,2.24,0,0,0,.71-.15,1.25,1.25,0,0,0,.53-.4,1.47,1.47,0,0,0,0-1.48,1.16,1.16,0,0,0-.47-.41,1.89,1.89,0,0,0-.66-.19,4.51,4.51,0,0,0-.72,0H95.56Z"/><path class="cls-1" d="M107.76,42.94h2.17l5.23,11.9-3,0-1-2.53-4.63,0-1,2.53h-2.9Zm1,3.46-1.43,3.71h2.91Z"/><path class="cls-1" d="M116.31,42.91l4.45,0a10.23,10.23,0,0,1,1.56.11,4.22,4.22,0,0,1,1.41.43,2.76,2.76,0,0,1,1,.91,2.83,2.83,0,0,1,.39,1.57,2.46,2.46,0,0,1-.56,1.67,3,3,0,0,1-1.48,1v0a3.34,3.34,0,0,1,1.07.32,3,3,0,0,1,.83.62,2.79,2.79,0,0,1,.53.88,3.23,3.23,0,0,1,.19,1.08,2.9,2.9,0,0,1-.4,1.58,3.17,3.17,0,0,1-1,1,4.46,4.46,0,0,1-1.44.56,7.81,7.81,0,0,1-1.59.17l-4.88,0ZM119,47.66h1.9a3.07,3.07,0,0,0,.6-.07,1.79,1.79,0,0,0,.53-.22,1.15,1.15,0,0,0,.38-.41,1.28,1.28,0,0,0,.14-.61,1.15,1.15,0,0,0-.16-.61,1.18,1.18,0,0,0-.42-.38,2,2,0,0,0-.57-.19,3.36,3.36,0,0,0-.63-.06H119Zm0,4.94h2.35a2.62,2.62,0,0,0,.62-.07,1.4,1.4,0,0,0,.56-.24,1.26,1.26,0,0,0,.57-1.09,1.07,1.07,0,0,0-.21-.69,1.38,1.38,0,0,0-.53-.39,2.67,2.67,0,0,0-.7-.18,4.15,4.15,0,0,0-.69,0h-2Z"/><path class="cls-1" d="M131.15,42.86h2.17l5.23,11.9h-3l-1-2.52-4.63,0-1,2.53H126Zm1,3.46L130.74,50h2.91Z"/><path class="cls-1" d="M145.9,50.73a9.25,9.25,0,0,1-.14,1.6,3.5,3.5,0,0,1-.54,1.38,2.82,2.82,0,0,1-1.15,1,4.57,4.57,0,0,1-2,.37,4.21,4.21,0,0,1-2.4-.66,3.23,3.23,0,0,1-1.27-2.1l2.41-.6a1.12,1.12,0,0,0,.4.74,1.16,1.16,0,0,0,.78.3,1,1,0,0,0,.71-.23,1.48,1.48,0,0,0,.37-.57,3.26,3.26,0,0,0,.14-.73c0-.26,0-.51,0-.73l0-7.65h2.63Z"/><path class="cls-1" d="M152.05,42.78h2.17l5.23,11.91h-3l-1-2.53-4.63,0-1,2.53h-2.89Zm1,3.47L151.64,50h2.91Z"/><path class="cls-1" d="M160.6,42.75h3.94a10.46,10.46,0,0,1,2.72.31,6.39,6.39,0,0,1,2.26,1,5.18,5.18,0,0,1,1.53,1.86,6.16,6.16,0,0,1,.57,2.77,5.49,5.49,0,0,1-2,4.42,6.56,6.56,0,0,1-2.14,1.14,8.54,8.54,0,0,1-2.54.4h-4.29Zm2.66,9.49h1.37a7,7,0,0,0,1.69-.19,3.49,3.49,0,0,0,1.35-.62,2.88,2.88,0,0,0,.9-1.13,4,4,0,0,0,.32-1.71,3.31,3.31,0,0,0-.33-1.52,3.1,3.1,0,0,0-.89-1.07,3.89,3.89,0,0,0-1.31-.63,6.2,6.2,0,0,0-1.57-.2h-1.55Z"/><path class="cls-1" d="M172.77,48.67a6.58,6.58,0,0,1,.47-2.6,5.58,5.58,0,0,1,1.33-2,5.8,5.8,0,0,1,2-1.26,7.17,7.17,0,0,1,2.58-.45,7.43,7.43,0,0,1,2.58.43,6,6,0,0,1,2,1.24,5.83,5.83,0,0,1,1.34,2,6.53,6.53,0,0,1,.49,2.59,6.62,6.62,0,0,1-.47,2.6,5.68,5.68,0,0,1-3.36,3.24,7.78,7.78,0,0,1-5.16,0,5.91,5.91,0,0,1-2-1.25,5.69,5.69,0,0,1-1.34-2A6.57,6.57,0,0,1,172.77,48.67Zm2.73,0a4.26,4.26,0,0,0,.26,1.54,3.6,3.6,0,0,0,.76,1.21,3.32,3.32,0,0,0,1.17.79,3.71,3.71,0,0,0,1.52.28,3.94,3.94,0,0,0,1.53-.29,3.39,3.39,0,0,0,1.16-.8,3.47,3.47,0,0,0,.75-1.22,4.44,4.44,0,0,0,.26-1.54,4.72,4.72,0,0,0-.27-1.53,3.55,3.55,0,0,0-.76-1.22,3.34,3.34,0,0,0-1.17-.8,4.11,4.11,0,0,0-1.52-.28,3.94,3.94,0,0,0-1.53.3,3.37,3.37,0,0,0-1.91,2A4.33,4.33,0,0,0,175.5,48.66Z"/><path class="cls-1" d="M187.4,42.65H192a7.47,7.47,0,0,1,1.73.17,4.06,4.06,0,0,1,1.43.58,2.86,2.86,0,0,1,1,1.11,3.74,3.74,0,0,1,.37,1.74,3.5,3.5,0,0,1-.65,2.15A3,3,0,0,1,194,49.52l3.05,5h-3.15l-2.5-4.75h-1.3l0,4.77h-2.63ZM190,47.58h1.55l.75,0a2.24,2.24,0,0,0,.71-.15,1.25,1.25,0,0,0,.53-.4,1.47,1.47,0,0,0,0-1.48,1.16,1.16,0,0,0-.47-.41,2.13,2.13,0,0,0-.66-.19,5.94,5.94,0,0,0-.72,0H190Z"/><path class="cls-1" d="M202.23,42.6h2.17l5.23,11.91h-3l-1-2.53L201,52l-1,2.53h-2.9Zm1,3.46-1.43,3.72,2.91,0Z"/><path class="cls-1" d="M216.69,45.46a1.76,1.76,0,0,0-.87-.59,3.06,3.06,0,0,0-1-.19,2.36,2.36,0,0,0-.58.07,1.92,1.92,0,0,0-.58.21,1.13,1.13,0,0,0-.43.38.92.92,0,0,0-.17.57,1,1,0,0,0,.41.83,3.72,3.72,0,0,0,1,.48c.41.13.85.27,1.32.4a5.24,5.24,0,0,1,1.33.57,2.84,2.84,0,0,1,1.43,2.65,3.81,3.81,0,0,1-.37,1.74,3.5,3.5,0,0,1-1,1.23,4.22,4.22,0,0,1-1.47.73,6.78,6.78,0,0,1-3.91-.1,5.7,5.7,0,0,1-1.86-1.14l1.86-2.06a2.71,2.71,0,0,0,1,.83,2.84,2.84,0,0,0,1.92.21,2.13,2.13,0,0,0,.58-.23,1.13,1.13,0,0,0,.42-.39.94.94,0,0,0,.16-.55,1,1,0,0,0-.41-.85,3.75,3.75,0,0,0-1-.53c-.42-.14-.87-.29-1.35-.43a6.28,6.28,0,0,1-1.35-.59,3.21,3.21,0,0,1-1-1,2.91,2.91,0,0,1-.42-1.6,3.54,3.54,0,0,1,.38-1.69,3.67,3.67,0,0,1,1-1.21,4.47,4.47,0,0,1,1.46-.74,6,6,0,0,1,1.7-.25,6.71,6.71,0,0,1,1.95.28,4.66,4.66,0,0,1,1.71.95Z"/><path class="cls-1" d="M66.73,25.81h-1l3.56-8.27h.82l3.62,8.24h-1l-.92-2.17H67.63Zm1.21-2.95h3.58l-1.8-4.33Z"/><path class="cls-1" d="M78.75,18.87a1.83,1.83,0,0,0-1.6-.8,2.3,2.3,0,0,0-.64.09,1.87,1.87,0,0,0-.57.27,1.36,1.36,0,0,0-.55,1.14,1.22,1.22,0,0,0,.32.87,2.32,2.32,0,0,0,.79.5,10,10,0,0,0,1,.36,4.63,4.63,0,0,1,1,.41,2.59,2.59,0,0,1,.78.69,2,2,0,0,1,.32,1.18,2.24,2.24,0,0,1-.23,1,2.3,2.3,0,0,1-.63.75,2.82,2.82,0,0,1-.87.47,3.06,3.06,0,0,1-1,.17,3.73,3.73,0,0,1-1.44-.28,2.74,2.74,0,0,1-1.16-.94l.77-.55a1.92,1.92,0,0,0,.74.73,2.28,2.28,0,0,0,1.13.27,2,2,0,0,0,1.19-.39,1.59,1.59,0,0,0,.41-.48,1.24,1.24,0,0,0,.16-.64,1.33,1.33,0,0,0-.18-.72,1.44,1.44,0,0,0-.48-.47,2.67,2.67,0,0,0-.68-.32l-.78-.26c-.27-.08-.53-.18-.78-.28a2.59,2.59,0,0,1-.68-.42,1.75,1.75,0,0,1-.48-.62,2.24,2.24,0,0,1-.18-.95,2.13,2.13,0,0,1,.22-1,2.18,2.18,0,0,1,.6-.74,2.57,2.57,0,0,1,.86-.43,3.24,3.24,0,0,1,1-.15,3.46,3.46,0,0,1,1.27.22,2.75,2.75,0,0,1,1.06.78Z"/><path class="cls-1" d="M81.21,25.75h-1l3.57-8.27h.81l3.62,8.24h-1l-.91-2.16H82.11Zm1.22-2.94H86l-1.8-4.33Z"/><path class="cls-1" d="M93.42,24.17l2.76-6.73h1.28l0,8.26h-.84l0-7.14h0l-3,7.15H93.2l-3-7.12h0l0,7.13h-.84l0-8.26h1.29Z"/><path class="cls-1" d="M99.7,17.43h2.46a5.38,5.38,0,0,1,1,.1,2.67,2.67,0,0,1,.85.35,1.73,1.73,0,0,1,.59.64,2,2,0,0,1,.23,1,1.78,1.78,0,0,1-.38,1.16,1.83,1.83,0,0,1-1.07.65v0a2,2,0,0,1,1.37.61,2.08,2.08,0,0,1,.5,1.45,2.91,2.91,0,0,1-.09.59,2.07,2.07,0,0,1-.42.76,2.45,2.45,0,0,1-.9.66,3.73,3.73,0,0,1-1.59.29H99.73Zm.86,3.61h1.69a2.47,2.47,0,0,0,.6-.08,1.72,1.72,0,0,0,.53-.25,1.31,1.31,0,0,0,.54-1.12,2.24,2.24,0,0,0,0-.37,1.27,1.27,0,0,0-.24-.46,1.4,1.4,0,0,0-.53-.4,2.22,2.22,0,0,0-.94-.17h-1.61Zm0,3.88h1.61a3.3,3.3,0,0,0,.85-.1,2.38,2.38,0,0,0,.69-.28,1.65,1.65,0,0,0,.46-.49,1.63,1.63,0,0,0-.37-1.91,2.49,2.49,0,0,0-1.54-.39h-1.71Z"/><path class="cls-1" d="M107.92,24.89h3.84v.77h-4.69l0-8.25h.84Z"/><path class="cls-1" d="M113.75,24.87l4.42,0v.77l-5.26,0,0-8.26H118v.77h-4.28V21h4v.77h-4Z"/><path class="cls-1" d="M119.69,25.62h-1l3.56-8.27h.82l3.62,8.24h-1l-.92-2.16h-4.22Zm1.21-2.95h3.58l-1.8-4.33Z"/><path class="cls-1" d="M130.92,17.32h2.74a4.93,4.93,0,0,1,1.55.25,4.35,4.35,0,0,1,1.4.77,4,4,0,0,1,1,1.29,4,4,0,0,1,.39,1.8,4,4,0,0,1-.37,1.81,3.82,3.82,0,0,1-1,1.29,4.15,4.15,0,0,1-1.39.78,5,5,0,0,1-1.55.27H131Zm.87,7.48h1.63a4.29,4.29,0,0,0,1.64-.29,3.52,3.52,0,0,0,1.15-.77,3,3,0,0,0,.68-1.07,3.53,3.53,0,0,0,.22-1.24,3.68,3.68,0,0,0-.23-1.24,3.11,3.11,0,0,0-.69-1.08,3.37,3.37,0,0,0-1.15-.75,4.33,4.33,0,0,0-1.64-.28h-1.64Z"/><path class="cls-1" d="M140.55,24.77H145v.77h-5.26l0-8.25,5.12,0V18l-4.28,0v2.81l4,0v.77l-4,0Z"/></svg>